<svg width="30" height="30" viewBox="0 0 30 30" fill="none" xmlns="http://www.w3.org/2000/svg">
<path d="M26.3814 16.3277L26.2802 16.243C26.0093 16.0173 25.6898 15.8912 25.3635 15.8553V10.0909H25.6362C26.0874 10.0909 26.4544 9.72388 26.4544 9.27274V6.00003C26.4544 5.54889 26.0874 5.18186 25.6362 5.18186H22.9211C22.9783 5.14008 23.0358 5.09938 23.0912 5.05133C24.2817 4.0177 24.2662 3.03332 24.2651 2.99176C24.2619 2.8884 24.2007 2.79573 24.1064 2.75231C24.0681 2.73447 23.1519 2.3214 21.971 2.49851C21.21 2.61289 20.5866 2.96672 20.1778 3.38285C19.8391 2.81618 19.2307 2.45455 18.5454 2.45455H17.9999C17.3138 2.45455 16.7057 2.81591 16.3672 3.38258C15.9583 2.96656 15.3351 2.61284 14.5743 2.49851C13.3929 2.3214 12.4767 2.73447 12.4389 2.75231C12.3446 2.79573 12.2833 2.8884 12.2801 2.99176C12.2791 3.03332 12.2636 4.0177 13.4547 5.0516C13.5099 5.09955 13.5673 5.14013 13.6244 5.18186H10.909C10.4579 5.18186 10.0909 5.54889 10.0909 6.00003V9.27274C10.0909 9.72388 10.4579 10.0909 10.909 10.0909H11.1818V17.1655H10.0876C9.35953 17.1655 8.46122 18.0993 7.90906 18.7709V17.9999C7.90906 17.2481 7.29756 16.6363 6.54543 16.6363H4.36363C3.61151 16.6363 3 17.2481 3 17.9999V26.1817C3 26.9335 3.61151 27.5453 4.36363 27.5453H6.54543C7.29756 27.5453 7.90906 26.9335 7.90906 26.1817V25.6398C8.37924 25.8196 8.88067 25.917 9.38189 25.9191C10.1068 25.922 11.422 25.9268 12.7329 25.9268C13.7791 25.9268 14.8226 25.9239 15.5603 25.9148L15.8986 25.9116C17.9797 25.8941 19.623 25.8799 22.4307 23.2627C24.189 21.6239 25.6799 19.896 26.6211 18.7347C27.2097 18.0079 27.1021 16.9283 26.3814 16.3277ZM24.818 15.8805C24.5065 15.9468 24.2099 16.0986 23.9663 16.338L20.888 19.3636H20.4544V10.0909H24.818V15.8805ZM20.4544 5.72731V9.54547H16.0908V5.72731H20.4544ZM16.6363 17.9293V10.0909H19.909V19.3636H16.8038C16.8568 19.1461 16.8707 18.9065 16.8707 18.612C16.8707 18.3341 16.7802 18.1107 16.6363 17.9293ZM25.6362 5.72731C25.7864 5.72731 25.909 5.84954 25.909 6.00003V9.27274C25.909 9.42323 25.7864 9.54547 25.6362 9.54547H20.9999V5.7284L25.6362 5.72731ZM22.0519 3.03812C22.2298 3.01123 22.4008 3.00032 22.5622 3.00032C23.0661 3.00032 23.4768 3.1074 23.6983 3.18065C23.6435 3.45632 23.4453 4.02174 22.7337 4.63935C22.2838 5.02978 21.747 5.16009 21.2747 5.18186H20.9541C20.8897 5.17858 20.8264 5.17438 20.7671 5.16827C20.4581 5.13658 20.2131 4.88409 20.2099 4.59621V4.39859C20.2099 3.96714 20.9445 3.20427 22.0519 3.03812ZM17.9999 3.00005H18.5454C19.1141 3.00005 19.6094 3.34745 19.8124 3.87016C19.7196 4.05021 19.6645 4.23043 19.6645 4.39859V4.59915C19.6669 4.8121 19.7309 5.01168 19.8402 5.18191H16.7048C16.8143 5.01119 16.8785 4.81062 16.8808 4.59626V4.39864C16.8808 4.23054 16.8257 4.05037 16.7329 3.87032C16.9355 3.34723 17.4305 3.00005 17.9999 3.00005ZM13.8121 4.63962C13.0989 4.02065 12.9012 3.45496 12.8464 3.18092C13.1393 3.08372 13.7599 2.9274 14.4934 3.03818C15.6008 3.20438 16.3354 3.96714 16.3354 4.39859V4.59326C16.3321 4.88409 16.0877 5.13658 15.7787 5.16827C15.7194 5.17438 15.6556 5.17858 15.5913 5.18186H15.2706C14.7984 5.16009 14.2615 5.02979 13.8121 4.63962ZM10.6363 9.27274V6.00003C10.6363 5.84954 10.7588 5.72731 10.909 5.72731L15.5454 5.7284V9.54547H10.909C10.7588 9.54547 10.6363 9.42323 10.6363 9.27274ZM11.7272 10.0909H16.0908V17.5124C15.3963 17.1731 14.4805 17.1655 14.4188 17.1655H11.7272V10.0909ZM7.36361 26.1817C7.36361 26.6329 6.99658 26.9999 6.54543 26.9999H4.36363C3.91249 26.9999 3.54545 26.6329 3.54545 26.1817V18C3.54545 17.5488 3.91249 17.1818 4.36363 17.1818H6.54543C6.99658 17.1818 7.36361 17.5488 7.36361 18V26.1817ZM26.1971 18.3912C25.2671 19.5388 23.7937 21.2463 22.0588 22.8638C19.4061 25.3364 17.8561 25.3494 15.8942 25.3662L15.5539 25.3694C13.8952 25.3902 10.6864 25.3788 9.38402 25.3737C8.87031 25.3718 8.37602 25.2581 7.90906 25.0465V19.666C8.46749 18.8826 9.50865 17.711 10.0876 17.711H14.4187C14.4379 17.711 16.3252 17.7355 16.3252 18.612C16.3252 19.6302 16.3252 19.7367 13.0008 21.6714C12.8708 21.747 12.8266 21.914 12.9022 22.0443C12.9534 22.1314 13.0444 22.1798 13.1382 22.1798C13.185 22.1798 13.2325 22.1678 13.2756 22.1428C15.2463 20.9957 16.1381 20.4421 16.5419 19.909H20.9998C21.0712 19.909 21.1399 19.8811 21.1911 19.8307L24.3487 16.7269C24.7834 16.301 25.4626 16.2728 25.9308 16.6619L26.0319 16.7466C26.5252 17.1573 26.5993 17.8953 26.1971 18.3912Z" fill="#454545"/>
</svg>
