<svg width="36" height="36" viewBox="0 0 36 36" fill="none" xmlns="http://www.w3.org/2000/svg">
<path fill-rule="evenodd" clip-rule="evenodd" d="M33.0001 8.18181H3.00009C2.69884 8.18181 2.45463 8.42602 2.45463 8.72726V27C2.45463 27.3012 2.69884 27.5454 3.00009 27.5454H33.0001C33.3013 27.5454 33.5455 27.3012 33.5455 27V8.72726C33.5455 8.42602 33.3013 8.18181 33.0001 8.18181ZM3.00009 7.63635C2.3976 7.63635 1.90918 8.12477 1.90918 8.72726V27C1.90918 27.6025 2.3976 28.0909 3.00009 28.0909H33.0001C33.6026 28.0909 34.091 27.6025 34.091 27V8.72726C34.091 8.12477 33.6026 7.63635 33.0001 7.63635H3.00009Z" fill="#454545"/>
<path fill-rule="evenodd" clip-rule="evenodd" d="M31.9092 10.3636H27.8183V15.2727H31.9092V10.3636ZM27.8183 9.81817C27.517 9.81817 27.2728 10.0624 27.2728 10.3636V15.2727C27.2728 15.574 27.517 15.8182 27.8183 15.8182H31.9092C32.2104 15.8182 32.4546 15.574 32.4546 15.2727V10.3636C32.4546 10.0624 32.2104 9.81817 31.9092 9.81817H27.8183Z" fill="#454545"/>
<path fill-rule="evenodd" clip-rule="evenodd" d="M24.6204 10.999C24.3581 10.8814 23.9581 10.8358 23.2626 11.2712C22.4388 11.787 21.7389 11.8853 21.1494 11.7534C20.5796 11.626 20.1724 11.2935 19.9229 11.0893C19.748 10.9463 19.7222 10.6885 19.8653 10.5137C20.0084 10.3388 20.2661 10.313 20.441 10.4561C20.6914 10.661 20.9661 10.874 21.328 10.955C21.6704 11.0315 22.1523 11.0011 22.8285 10.5778C23.6879 10.0397 24.3789 9.99406 24.9551 10.2524C25.2239 10.3729 25.4403 10.5481 25.6158 10.7135C25.7038 10.7965 25.7853 10.8807 25.858 10.9564C25.8672 10.9661 25.8763 10.9755 25.8852 10.9848C25.9486 11.051 26.0038 11.1086 26.0579 11.1612C26.2199 11.3186 26.2237 11.5776 26.0662 11.7396C25.9087 11.9017 25.6497 11.9054 25.4877 11.7479C25.4223 11.6844 25.3561 11.6152 25.2939 11.5503C25.285 11.541 25.2763 11.5319 25.2676 11.5229C25.1955 11.4478 25.1264 11.3765 25.0546 11.3089C24.9106 11.1731 24.7709 11.0664 24.6204 10.999Z" fill="#454545"/>
<path fill-rule="evenodd" clip-rule="evenodd" d="M24.6204 13.5806C24.3581 13.4631 23.9581 13.4175 23.2626 13.8529C22.4388 14.3687 21.7389 14.4669 21.1494 14.3351C20.5796 14.2077 20.1724 13.8752 19.9229 13.671C19.748 13.528 19.7222 13.2702 19.8653 13.0954C20.0084 12.9205 20.2661 12.8947 20.441 13.0378C20.6914 13.2427 20.9661 13.4557 21.328 13.5367C21.6704 13.6132 22.1523 13.5828 22.8285 13.1594C23.6879 12.6213 24.3789 12.5757 24.9551 12.8341C25.2239 12.9545 25.4403 13.1298 25.6158 13.2952C25.7038 13.3781 25.7853 13.4623 25.858 13.5381C25.8672 13.5478 25.8763 13.5572 25.8852 13.5665C25.9486 13.6327 26.0038 13.6903 26.0579 13.7428C26.2199 13.9003 26.2237 14.1593 26.0662 14.3213C25.9087 14.4834 25.6497 14.4871 25.4877 14.3296C25.4223 14.2661 25.3561 14.1969 25.2939 14.132C25.285 14.1227 25.2763 14.1136 25.2676 14.1045C25.1955 14.0294 25.1264 13.9582 25.0546 13.8906C24.9106 13.7548 24.7709 13.6481 24.6204 13.5806Z" fill="#454545"/>
<path fill-rule="evenodd" clip-rule="evenodd" d="M4.22736 11.1818C4.22736 10.9559 4.41052 10.7727 4.63645 10.7727H9.00009C9.22602 10.7727 9.40918 10.9559 9.40918 11.1818C9.40918 11.4077 9.22602 11.5909 9.00009 11.5909H4.63645C4.41052 11.5909 4.22736 11.4077 4.22736 11.1818Z" fill="#454545"/>
<path fill-rule="evenodd" clip-rule="evenodd" d="M4.22736 16.6364C4.22736 16.4104 4.41052 16.2273 4.63645 16.2273H15.0001C15.226 16.2273 15.4092 16.4104 15.4092 16.6364C15.4092 16.8623 15.226 17.0454 15.0001 17.0454H4.63645C4.41052 17.0454 4.22736 16.8623 4.22736 16.6364Z" fill="#454545"/>
<path fill-rule="evenodd" clip-rule="evenodd" d="M4.22736 19.3636C4.22736 19.1377 4.41052 18.9545 4.63645 18.9545H15.0001C15.226 18.9545 15.4092 19.1377 15.4092 19.3636C15.4092 19.5896 15.226 19.7727 15.0001 19.7727H4.63645C4.41052 19.7727 4.22736 19.5896 4.22736 19.3636Z" fill="#454545"/>
<path fill-rule="evenodd" clip-rule="evenodd" d="M18.0001 25.7727C17.7742 25.7727 17.591 25.5896 17.591 25.3636L17.591 10.3636C17.591 10.1377 17.7742 9.95453 18.0001 9.95453C18.226 9.95453 18.4092 10.1377 18.4092 10.3636L18.4092 25.3636C18.4092 25.5896 18.226 25.7727 18.0001 25.7727Z" fill="#454545"/>
<path fill-rule="evenodd" clip-rule="evenodd" d="M4.22736 22.0909C4.22736 21.865 4.41052 21.6818 4.63645 21.6818H15.0001C15.226 21.6818 15.4092 21.865 15.4092 22.0909C15.4092 22.3168 15.226 22.5 15.0001 22.5H4.63645C4.41052 22.5 4.22736 22.3168 4.22736 22.0909Z" fill="#454545"/>
<path fill-rule="evenodd" clip-rule="evenodd" d="M12.1365 24.8182C12.1365 24.5922 12.3196 24.4091 12.5455 24.4091H15.0001C15.226 24.4091 15.4092 24.5922 15.4092 24.8182C15.4092 25.0441 15.226 25.2273 15.0001 25.2273H12.5455C12.3196 25.2273 12.1365 25.0441 12.1365 24.8182Z" fill="#454545"/>
</svg>
