<svg width="31" height="29" viewBox="0 0 31 29" fill="none" xmlns="http://www.w3.org/2000/svg">
<path fill-rule="evenodd" clip-rule="evenodd" d="M0.965332 0.86573C0.965332 0.406646 1.32371 0.0344849 1.76578 0.0344849H3.90391C3.91343 0.0344849 3.92296 0.0346614 3.93248 0.0350145C4.82855 0.0682483 5.57525 0.357249 6.10023 0.902431C6.62559 1.448 6.84248 2.16076 6.84248 2.86407V6.02357L30.2123 9.59093C30.4374 9.62528 30.6377 9.75743 30.7633 9.95437C30.8889 10.1513 30.9279 10.3944 30.8705 10.623L27.9306 22.3355C27.8387 22.7016 27.5203 22.9571 27.156 22.9571H6.09548C5.65341 22.9571 5.29503 22.5849 5.29503 22.1258V7.04901C5.26051 6.95615 5.24158 6.85523 5.24158 6.74972V2.86407C5.24158 2.5127 5.13775 2.25404 4.96822 2.07799C4.7996 1.90288 4.48079 1.72147 3.88884 1.69697H1.76578C1.32371 1.69697 0.965332 1.32481 0.965332 0.86573ZM6.89594 7.71209V21.2946H26.5374L29.0961 11.1009L6.89594 7.71209Z" fill="white"/>
<path fill-rule="evenodd" clip-rule="evenodd" d="M12.0956 21.3838C12.2075 21.3251 12.3311 21.2946 12.4564 21.2946H17.9086C17.9905 21.2946 18.072 21.3076 18.1501 21.3333L26.5957 24.1088C27.0172 24.2473 27.2507 24.7144 27.1173 25.1521C26.984 25.5898 26.5342 25.8323 26.1127 25.6938L17.785 22.9571H12.647L7.41844 25.6988C7.02382 25.9057 6.54238 25.7413 6.34311 25.3315C6.14385 24.9217 6.30221 24.4217 6.69684 24.2148L12.0956 21.3838Z" fill="white"/>
<path fill-rule="evenodd" clip-rule="evenodd" d="M7.16454 25.788C6.78003 25.788 6.46831 26.1117 6.46831 26.511C6.46831 26.9104 6.78003 27.2341 7.16454 27.2341C7.54906 27.2341 7.86078 26.9104 7.86078 26.511C7.86078 26.1117 7.54906 25.788 7.16454 25.788ZM4.86741 26.511C4.86741 25.1936 5.89587 24.1255 7.16454 24.1255C8.43322 24.1255 9.46168 25.1936 9.46168 26.511C9.46168 27.8285 8.43322 28.8966 7.16454 28.8966C5.89587 28.8966 4.86741 27.8285 4.86741 26.511Z" fill="white"/>
<path fill-rule="evenodd" clip-rule="evenodd" d="M26.5146 25.788C26.13 25.788 25.8183 26.1117 25.8183 26.511C25.8183 26.9104 26.13 27.2341 26.5146 27.2341C26.8991 27.2341 27.2108 26.9104 27.2108 26.511C27.2108 26.1117 26.8991 25.788 26.5146 25.788ZM24.2174 26.511C24.2174 25.1936 25.2459 24.1255 26.5146 24.1255C27.7832 24.1255 28.8117 25.1936 28.8117 26.511C28.8117 27.8285 27.7832 28.8966 26.5146 28.8966C25.2459 28.8966 24.2174 27.8285 24.2174 26.511Z" fill="white"/>
<path fill-rule="evenodd" clip-rule="evenodd" d="M9.08885 9.74862C9.53093 9.74862 9.88931 10.1208 9.88931 10.5799V19.5724C9.88931 20.0315 9.53093 20.4036 9.08885 20.4036C8.64678 20.4036 8.2884 20.0315 8.2884 19.5724V10.5799C8.2884 10.1208 8.64678 9.74862 9.08885 9.74862Z" fill="white"/>
<path fill-rule="evenodd" clip-rule="evenodd" d="M12.8306 10.1372C13.2726 10.1372 13.631 10.5093 13.631 10.9684V19.5724C13.631 20.0315 13.2726 20.4036 12.8306 20.4036C12.3885 20.4036 12.0301 20.0315 12.0301 19.5724V10.9684C12.0301 10.5093 12.3885 10.1372 12.8306 10.1372Z" fill="white"/>
<path fill-rule="evenodd" clip-rule="evenodd" d="M16.5723 10.6923C17.0144 10.6923 17.3727 11.0644 17.3727 11.5235V19.5724C17.3727 20.0315 17.0144 20.4036 16.5723 20.4036C16.1302 20.4036 15.7718 20.0315 15.7718 19.5724V11.5235C15.7718 11.0644 16.1302 10.6923 16.5723 10.6923Z" fill="white"/>
<path fill-rule="evenodd" clip-rule="evenodd" d="M20.314 11.1919C20.7561 11.1919 21.1144 11.564 21.1144 12.0231V19.5724C21.1144 20.0315 20.7561 20.4036 20.314 20.4036C19.8719 20.4036 19.5135 20.0315 19.5135 19.5724V12.0231C19.5135 11.564 19.8719 11.1919 20.314 11.1919Z" fill="white"/>
<path fill-rule="evenodd" clip-rule="evenodd" d="M24.0557 11.6359C24.4978 11.6359 24.8562 12.0081 24.8562 12.4672V19.5724C24.8562 20.0315 24.4978 20.4036 24.0557 20.4036C23.6136 20.4036 23.2553 20.0315 23.2553 19.5724V12.4672C23.2553 12.0081 23.6136 11.6359 24.0557 11.6359Z" fill="white"/>
</svg>
