<svg width="30" height="30" viewBox="0 0 30 30" fill="none" xmlns="http://www.w3.org/2000/svg">
<path d="M28.8701 20.896L20.4184 3.72187C20.2449 3.36928 19.9651 3.08006 19.6184 2.89503C19.2717 2.71001 18.8757 2.63851 18.4862 2.69062L10.6768 3.75469C10.6621 3.7567 10.6498 3.76439 10.6356 3.76772C10.6208 3.76936 10.6062 3.77173 10.5916 3.77484L6.72787 5.06358L1.69907 1.04006C1.65098 1.00162 1.59578 0.973024 1.53664 0.955912C1.4775 0.9388 1.41557 0.933504 1.35438 0.940327C1.2308 0.954106 1.11776 1.01641 1.04012 1.11354C0.962485 1.21066 0.92661 1.33465 0.940389 1.45823C0.954169 1.5818 1.01647 1.69484 1.1136 1.77248L5.66854 5.4164L3.11769 6.26719C2.74338 6.38962 2.41749 6.6275 2.1868 6.94668C1.9561 7.26586 1.83247 7.64993 1.83365 8.04375V27.1875C1.83418 27.6846 2.0319 28.1612 2.38341 28.5127C2.73493 28.8643 3.21153 29.062 3.70865 29.0625H17.7711C18.2061 29.0651 18.6281 28.9144 18.963 28.637C19.298 28.3595 19.5245 27.9729 19.6029 27.5451L28.0141 23.4082C28.4602 23.188 28.8009 22.7999 28.9613 22.329C29.1218 21.8581 29.089 21.3428 28.8701 20.896ZM18.7086 27.1687C18.7062 27.1867 18.7047 27.2047 18.7043 27.2227C18.6985 27.4656 18.5974 27.6964 18.4228 27.8652C18.2481 28.0341 18.014 28.1274 17.7711 28.125H3.70865C3.46009 28.1247 3.2218 28.0258 3.04605 27.8501C2.8703 27.6743 2.77143 27.4361 2.77115 27.1875V8.04375C2.77042 7.84719 2.83204 7.65546 2.94715 7.49614C3.06227 7.33681 3.22494 7.21809 3.41179 7.15706L6.54008 6.11353L9.04485 8.11739C8.92756 8.3639 8.86611 8.63326 8.8649 8.90625C8.8649 9.27709 8.97486 9.6396 9.18089 9.94794C9.38692 10.2563 9.67975 10.4966 10.0224 10.6385C10.365 10.7804 10.742 10.8176 11.1057 10.7452C11.4694 10.6729 11.8035 10.4943 12.0657 10.2321C12.3279 9.96985 12.5065 9.63576 12.5789 9.27204C12.6512 8.90833 12.6141 8.53133 12.4722 8.18872C12.3303 7.84611 12.0899 7.55327 11.7816 7.34724C11.4732 7.14121 11.1107 7.03125 10.7399 7.03125C10.3445 7.03217 9.95964 7.1592 9.64138 7.39387L7.59937 5.76028L10.74 4.71272L18.0709 7.15804C18.2572 7.21938 18.4193 7.33815 18.5339 7.49731C18.6485 7.65648 18.7097 7.84786 18.7088 8.04398L18.7086 27.1687ZM11.0741 8.54006L10.4307 8.02533C10.5299 7.98895 10.6345 7.96982 10.7401 7.96875C10.9357 7.96657 11.1273 8.02499 11.2884 8.13598C11.4496 8.24697 11.5724 8.4051 11.6401 8.58867C11.7078 8.77225 11.7171 8.97228 11.6666 9.16133C11.6162 9.35037 11.5084 9.51917 11.3582 9.64457C11.208 9.76997 11.0227 9.84583 10.8277 9.86174C10.6327 9.87765 10.4375 9.83283 10.269 9.73343C10.1004 9.63403 9.96679 9.48491 9.88635 9.30655C9.80591 9.12818 9.78263 8.92929 9.81969 8.73717L10.4888 9.27248C10.5859 9.35012 10.7099 9.386 10.8335 9.37222C10.9571 9.35844 11.0701 9.29613 11.1477 9.19901C11.2254 9.10188 11.2612 8.97789 11.2475 8.85432C11.2337 8.73074 11.1712 8.6177 11.0741 8.54006ZM27.6007 22.5668H27.6001L19.6461 26.4789V8.04375C19.6475 7.65039 19.5242 7.26671 19.294 6.94772C19.0639 6.62873 18.7386 6.39081 18.3649 6.26808L12.7987 4.41145L18.6112 3.61954C18.8059 3.5935 19.0038 3.62927 19.1771 3.72179C19.3503 3.8143 19.4902 3.9589 19.5768 4.13517L28.0284 21.3091C28.138 21.5327 28.1546 21.7906 28.0744 22.0263C27.9943 22.2621 27.8239 22.4565 27.6007 22.5668Z" fill="#454545"/>
<path d="M7.82156 18.5367C8.33867 18.5362 8.83961 18.3564 9.23904 18.028C9.63847 17.6996 9.91169 17.2428 10.0121 16.7356C10.1126 16.2283 10.0341 15.7019 9.78999 15.2461C9.54589 14.7902 9.15128 14.4331 8.6734 14.2355C8.19553 14.0379 7.66393 14.0122 7.16918 14.1626C6.67443 14.313 6.24713 14.6303 5.96007 15.0604C5.673 15.4905 5.54393 16.0068 5.59485 16.5214C5.64577 17.036 5.87351 17.517 6.2393 17.8825C6.44695 18.0904 6.69363 18.2552 6.96517 18.3675C7.2367 18.4797 7.52774 18.5372 7.82156 18.5367ZM6.90216 15.3809C7.11488 15.168 7.39484 15.0354 7.69434 15.0058C7.99384 14.9762 8.29433 15.0514 8.54462 15.2185C8.79492 15.3856 8.97952 15.6343 9.06697 15.9223C9.15442 16.2103 9.13931 16.5197 9.02422 16.7977C8.90913 17.0758 8.70117 17.3054 8.43579 17.4473C8.1704 17.5892 7.86402 17.6348 7.56883 17.5761C7.27364 17.5175 7.00793 17.3583 6.81696 17.1257C6.62599 16.8931 6.52158 16.6015 6.52153 16.3005C6.5212 16.1297 6.55466 15.9605 6.61998 15.8027C6.6853 15.6448 6.7812 15.5015 6.90216 15.3809Z" fill="#454545"/>
<path d="M12.0762 20.555C11.7633 20.8679 11.5502 21.2666 11.4639 21.7006C11.3776 22.1347 11.4219 22.5846 11.5912 22.9934C11.7606 23.4022 12.0474 23.7517 12.4154 23.9975C12.7833 24.2434 13.2159 24.3746 13.6584 24.3746C14.101 24.3746 14.5336 24.2434 14.9015 23.9975C15.2695 23.7517 15.5563 23.4022 15.7256 22.9934C15.895 22.5846 15.9393 22.1347 15.853 21.7006C15.7667 21.2666 15.5536 20.8679 15.2407 20.555C15.034 20.3453 14.7876 20.1789 14.516 20.0653C14.2444 19.9516 13.9529 19.8931 13.6584 19.8931C13.364 19.8931 13.0725 19.9516 12.8009 20.0653C12.5292 20.1789 12.2829 20.3453 12.0762 20.555ZM14.578 23.0567C14.3653 23.2695 14.0853 23.4021 13.7858 23.4317C13.4863 23.4613 13.1859 23.3862 12.9356 23.219C12.6853 23.0519 12.5007 22.8032 12.4132 22.5152C12.3258 22.2272 12.3409 21.9179 12.456 21.6398C12.5711 21.3617 12.779 21.1321 13.0444 20.9902C13.3098 20.8483 13.6162 20.8027 13.9114 20.8614C14.2065 20.92 14.4723 21.0792 14.6632 21.3118C14.8542 21.5444 14.9586 21.8361 14.9587 22.137C14.9586 22.4819 14.8217 22.8126 14.578 23.0567Z" fill="#454545"/>
<path d="M15.2408 14.718C15.1529 14.6301 15.0337 14.5807 14.9094 14.5807C14.7851 14.5807 14.6658 14.6301 14.5779 14.718L6.23906 23.0567C6.19445 23.0999 6.15888 23.1517 6.13444 23.2088C6.11 23.266 6.09717 23.3274 6.09669 23.3895C6.09622 23.4517 6.10811 23.5133 6.13168 23.5708C6.15524 23.6284 6.19001 23.6806 6.23396 23.7246C6.27791 23.7685 6.33016 23.8033 6.38768 23.8269C6.44519 23.8504 6.50682 23.8623 6.56898 23.8619C6.63113 23.8614 6.69257 23.8486 6.74973 23.8241C6.80688 23.7997 6.8586 23.7641 6.90188 23.7195L15.2409 15.3809C15.3288 15.293 15.3782 15.1737 15.3781 15.0494C15.3781 14.9251 15.3287 14.8059 15.2408 14.718Z" fill="#454545"/>
</svg>
