<svg width="18" height="18" viewBox="0 0 18 18" fill="none" xmlns="http://www.w3.org/2000/svg">
<path d="M7.9375 0.875C7.68886 0.875 7.4504 0.973772 7.27459 1.14959C7.09877 1.3254 7 1.56386 7 1.8125C7 2.06114 7.09877 2.2996 7.27459 2.47541C7.4504 2.65123 7.68886 2.75 7.9375 2.75H13.875C14.3723 2.75 14.8492 2.94754 15.2008 3.29917C15.5525 3.65081 15.75 4.12772 15.75 4.625V13.375C15.75 13.8723 15.5525 14.3492 15.2008 14.7008C14.8492 15.0525 14.3723 15.25 13.875 15.25H7.9375C7.68886 15.25 7.4504 15.3488 7.27459 15.5246C7.09877 15.7004 7 15.9389 7 16.1875C7 16.4361 7.09877 16.6746 7.27459 16.8504C7.4504 17.0262 7.68886 17.125 7.9375 17.125H13.875C14.8696 17.125 15.8234 16.7299 16.5267 16.0267C17.2299 15.3234 17.625 14.3696 17.625 13.375V4.625C17.625 3.63044 17.2299 2.67661 16.5267 1.97335C15.8234 1.27009 14.8696 0.875 13.875 0.875H7.9375ZM11.725 8.3375L8.6 5.2125C8.42228 5.0469 8.18722 4.95675 7.94435 4.96103C7.70147 4.96532 7.46974 5.06371 7.29797 5.23547C7.12621 5.40724 7.02782 5.63897 7.02353 5.88185C7.01925 6.12472 7.1094 6.35978 7.275 6.5375L8.8 8.0625H1.6875C1.43886 8.0625 1.2004 8.16127 1.02459 8.33709C0.848772 8.5129 0.75 8.75136 0.75 9C0.75 9.24864 0.848772 9.4871 1.02459 9.66291C1.2004 9.83873 1.43886 9.9375 1.6875 9.9375H8.8L7.275 11.4625C7.18289 11.5483 7.10901 11.6518 7.05777 11.7668C7.00653 11.8818 6.97898 12.006 6.97676 12.1318C6.97454 12.2577 6.9977 12.3828 7.04485 12.4995C7.092 12.6162 7.16218 12.7223 7.2512 12.8113C7.34023 12.9003 7.44627 12.9705 7.563 13.0177C7.67974 13.0648 7.80477 13.088 7.93065 13.0857C8.05653 13.0835 8.18067 13.056 8.29567 13.0047C8.41067 12.9535 8.51417 12.8796 8.6 12.7875L11.725 9.6625C11.9006 9.48672 11.9992 9.24844 11.9992 9C11.9992 8.75156 11.9006 8.51328 11.725 8.3375Z" fill="white"/>
</svg>
