<svg width="351" height="111" viewBox="0 0 351 111" fill="none" xmlns="http://www.w3.org/2000/svg">
<mask id="mask0_138_86569" style="mask-type:luminance" maskUnits="userSpaceOnUse" x="190" y="85" width="88" height="16">
<path d="M199.322 99.5644H197.935V91.7119H195.203C195.093 93.1287 194.954 94.3431 194.784 95.355C194.62 96.3616 194.412 97.1848 194.161 97.8249C193.914 98.4594 193.614 98.9271 193.258 99.228C192.908 99.5234 192.489 99.6711 192.003 99.6711C191.855 99.6711 191.715 99.6629 191.584 99.6465C191.453 99.63 191.341 99.6027 191.248 99.5644V98.5305C191.319 98.5524 191.393 98.5688 191.469 98.5798C191.551 98.5907 191.636 98.5962 191.724 98.5962C191.97 98.5962 192.194 98.495 192.396 98.2926C192.604 98.0847 192.79 97.7729 192.954 97.3572C193.124 96.9414 193.274 96.4163 193.406 95.7817C193.537 95.1417 193.652 94.3896 193.75 93.5253C193.854 92.6555 193.944 91.6708 194.021 90.5713H199.322V99.5644ZM214.259 95.0514C214.259 96.0306 214.1 96.8703 213.783 97.5705C213.471 98.2707 213.023 98.8068 212.438 99.1787C211.852 99.5453 211.152 99.7285 210.337 99.7285C209.577 99.7285 208.912 99.5644 208.343 99.2362C207.78 98.908 207.334 98.4293 207.006 97.8002C206.683 97.1712 206.497 96.4053 206.448 95.5027H204.06V99.5644H202.698V90.5713H204.06V94.3458H206.464C206.541 93.5143 206.743 92.8059 207.071 92.2206C207.399 91.6353 207.843 91.1867 208.4 90.8749C208.958 90.5631 209.615 90.4072 210.37 90.4072C211.157 90.4072 211.841 90.5932 212.421 90.9652C213.006 91.3317 213.458 91.8623 213.775 92.557C214.098 93.2463 214.259 94.0777 214.259 95.0514ZM207.843 95.0514C207.843 95.8063 207.927 96.4491 208.097 96.9797C208.272 97.5049 208.543 97.9069 208.909 98.1859C209.281 98.4594 209.763 98.5962 210.353 98.5962C210.939 98.5962 211.415 98.4594 211.781 98.1859C212.153 97.9124 212.424 97.5131 212.593 96.9879C212.768 96.4573 212.856 95.8118 212.856 95.0514C212.856 94.302 212.768 93.6675 212.593 93.1478C212.418 92.6281 212.148 92.2343 211.781 91.9662C211.415 91.6927 210.939 91.556 210.353 91.556C209.768 91.556 209.289 91.6927 208.917 91.9662C208.551 92.2343 208.28 92.6281 208.105 93.1478C207.93 93.6675 207.843 94.302 207.843 95.0514ZM216.667 94.1653C216.667 92.8852 216.79 91.7939 217.036 90.8913C217.282 89.9833 217.662 89.2557 218.177 88.7087C218.696 88.1562 219.364 87.7788 220.179 87.5764C220.879 87.3849 221.59 87.2208 222.312 87.084C223.034 86.9418 223.737 86.8187 224.421 86.7148L224.659 87.9128C224.314 87.962 223.953 88.0195 223.576 88.0851C223.198 88.1453 222.821 88.2109 222.443 88.282C222.066 88.3477 221.71 88.4188 221.377 88.4954C221.043 88.5665 220.748 88.6403 220.491 88.7169C220.026 88.8427 219.624 89.0615 219.284 89.3733C218.951 89.6851 218.685 90.1146 218.488 90.6616C218.297 91.2086 218.182 91.8979 218.144 92.7293H218.242C218.406 92.4886 218.631 92.2507 218.915 92.0155C219.2 91.7802 219.539 91.5861 219.933 91.4329C220.326 91.2742 220.77 91.1949 221.262 91.1949C222.039 91.1949 222.687 91.3645 223.207 91.7037C223.726 92.0373 224.117 92.5078 224.38 93.115C224.643 93.7222 224.774 94.4333 224.774 95.2484C224.774 96.2276 224.604 97.0508 224.265 97.7182C223.931 98.3856 223.461 98.8888 222.854 99.228C222.247 99.5617 221.533 99.7285 220.712 99.7285C220.078 99.7285 219.509 99.6054 219.005 99.3593C218.508 99.1131 218.084 98.7521 217.734 98.2762C217.389 97.8002 217.124 97.2177 216.938 96.5284C216.757 95.8392 216.667 95.0514 216.667 94.1653ZM220.819 98.5962C221.338 98.5962 221.784 98.4868 222.156 98.268C222.534 98.0491 222.824 97.7045 223.026 97.2341C223.234 96.7582 223.338 96.14 223.338 95.3797C223.338 94.4278 223.155 93.6839 222.788 93.1478C222.427 92.6063 221.847 92.3355 221.049 92.3355C220.551 92.3355 220.099 92.4421 219.695 92.6555C219.29 92.8634 218.948 93.1122 218.669 93.4022C218.39 93.6921 218.188 93.9519 218.062 94.1817C218.062 94.7396 218.103 95.2812 218.185 95.8063C218.267 96.3315 218.409 96.8047 218.612 97.2259C218.814 97.6471 219.093 97.9808 219.449 98.2269C219.81 98.4731 220.266 98.5962 220.819 98.5962ZM228.068 99.5644H226.476L229.069 95.7735C228.691 95.6915 228.341 95.552 228.019 95.355C227.696 95.1526 227.433 94.8764 227.231 94.5263C227.034 94.1762 226.935 93.7413 226.935 93.2217C226.935 92.3574 227.223 91.7009 227.797 91.2524C228.377 90.7983 229.14 90.5713 230.086 90.5713H234.066V99.5644H232.704V95.954H230.423L228.068 99.5644ZM228.256 93.2299C228.256 93.7659 228.448 94.1653 228.831 94.4278C229.214 94.6849 229.761 94.8135 230.472 94.8135H232.704V91.7119H230.234C229.534 91.7119 229.028 91.8541 228.716 92.1385C228.41 92.4175 228.256 92.7813 228.256 93.2299ZM243.571 91.7283H240.609V99.5644H239.263V91.7283H236.342V90.5713H243.571V91.7283ZM257.872 92.8278C257.872 93.3912 257.708 93.8316 257.38 94.1489C257.052 94.4607 256.628 94.6713 256.108 94.7807V94.8463C256.672 94.9229 257.156 95.1253 257.56 95.4535C257.971 95.7763 258.176 96.2713 258.176 96.9387C258.176 97.4529 258.053 97.9069 257.807 98.3008C257.56 98.6946 257.175 99.0037 256.65 99.228C256.125 99.4523 255.441 99.5644 254.598 99.5644H250.725V90.5713H254.566C255.211 90.5713 255.78 90.6452 256.272 90.7929C256.77 90.9351 257.161 91.1703 257.446 91.4985C257.73 91.8267 257.872 92.2698 257.872 92.8278ZM256.756 96.9387C256.756 96.4081 256.554 96.0252 256.149 95.7899C255.75 95.5547 255.167 95.4371 254.401 95.4371H252.096V98.4567H254.434C255.189 98.4567 255.763 98.3418 256.157 98.1121C256.557 97.8768 256.756 97.4857 256.756 96.9387ZM256.486 92.9837C256.486 92.557 256.33 92.2397 256.018 92.0319C255.706 91.8185 255.195 91.7119 254.483 91.7119H252.096V94.2966H254.246C254.984 94.2966 255.542 94.1899 255.919 93.9765C256.297 93.7632 256.486 93.4323 256.486 92.9837ZM264.481 99.7285C263.672 99.7285 262.958 99.5617 262.34 99.228C261.721 98.8943 261.24 98.3856 260.895 97.7018C260.551 97.018 260.379 96.1564 260.379 95.1171C260.379 94.0285 260.559 93.1396 260.92 92.4503C261.287 91.7556 261.79 91.2414 262.43 90.9077C263.07 90.5741 263.797 90.4072 264.612 90.4072C265.061 90.4072 265.493 90.4537 265.909 90.5467C266.33 90.6342 266.675 90.7464 266.943 90.8831L266.533 92.0237C266.259 91.9143 265.942 91.8158 265.581 91.7283C265.225 91.6408 264.891 91.597 264.58 91.597C263.956 91.597 263.436 91.731 263.021 91.9991C262.61 92.2671 262.301 92.661 262.093 93.1806C261.891 93.7003 261.79 94.3403 261.79 95.1007C261.79 95.8282 261.888 96.4491 262.085 96.9633C262.288 97.4775 262.586 97.8714 262.98 98.1449C263.379 98.4129 263.877 98.5469 264.473 98.5469C264.949 98.5469 265.378 98.4977 265.761 98.3992C266.144 98.2953 266.492 98.175 266.803 98.0382V99.2526C266.502 99.4058 266.166 99.5234 265.794 99.6054C265.428 99.6875 264.99 99.7285 264.481 99.7285ZM272.904 90.4072C273.669 90.4072 274.326 90.5768 274.873 90.9159C275.42 91.2551 275.838 91.731 276.128 92.3437C276.418 92.9509 276.563 93.662 276.563 94.4771V95.3222H270.352C270.368 96.378 270.631 97.1821 271.139 97.7346C271.648 98.2871 272.365 98.5633 273.289 98.5633C273.858 98.5633 274.361 98.5114 274.799 98.4074C275.237 98.3035 275.691 98.1503 276.161 97.9479V99.1459C275.707 99.3483 275.256 99.496 274.807 99.589C274.364 99.682 273.839 99.7285 273.232 99.7285C272.367 99.7285 271.613 99.5535 270.967 99.2034C270.327 98.8478 269.829 98.3281 269.474 97.6443C269.118 96.9606 268.94 96.1236 268.94 95.1335C268.94 94.1653 269.102 93.3282 269.424 92.6227C269.753 91.9115 270.212 91.3645 270.803 90.9816C271.399 90.5987 272.099 90.4072 272.904 90.4072ZM272.887 91.5231C272.16 91.5231 271.58 91.7611 271.148 92.237C270.715 92.7129 270.458 93.3776 270.376 94.2309H275.135C275.13 93.6948 275.045 93.2244 274.881 92.8196C274.722 92.4093 274.479 92.092 274.151 91.8678C273.823 91.638 273.401 91.5231 272.887 91.5231Z" fill="#9C666D" stroke="white" stroke-width="2"/>
</mask>
<g mask="url(#mask0_138_86569)">
<path d="M199.322 99.5644H197.935V91.7119H195.203C195.093 93.1287 194.954 94.3431 194.784 95.355C194.62 96.3616 194.412 97.1848 194.161 97.8249C193.914 98.4594 193.614 98.9271 193.258 99.228C192.908 99.5234 192.489 99.6711 192.003 99.6711C191.855 99.6711 191.715 99.6629 191.584 99.6465C191.453 99.63 191.341 99.6027 191.248 99.5644V98.5305C191.319 98.5524 191.393 98.5688 191.469 98.5798C191.551 98.5907 191.636 98.5962 191.724 98.5962C191.97 98.5962 192.194 98.495 192.396 98.2926C192.604 98.0847 192.79 97.7729 192.954 97.3572C193.124 96.9414 193.274 96.4163 193.406 95.7817C193.537 95.1417 193.652 94.3896 193.75 93.5253C193.854 92.6555 193.944 91.6708 194.021 90.5713H199.322V99.5644ZM214.259 95.0514C214.259 96.0306 214.1 96.8703 213.783 97.5705C213.471 98.2707 213.023 98.8068 212.438 99.1787C211.852 99.5453 211.152 99.7285 210.337 99.7285C209.577 99.7285 208.912 99.5644 208.343 99.2362C207.78 98.908 207.334 98.4293 207.006 97.8002C206.683 97.1712 206.497 96.4053 206.448 95.5027H204.06V99.5644H202.698V90.5713H204.06V94.3458H206.464C206.541 93.5143 206.743 92.8059 207.071 92.2206C207.399 91.6353 207.843 91.1867 208.4 90.8749C208.958 90.5631 209.615 90.4072 210.37 90.4072C211.157 90.4072 211.841 90.5932 212.421 90.9652C213.006 91.3317 213.458 91.8623 213.775 92.557C214.098 93.2463 214.259 94.0777 214.259 95.0514ZM207.843 95.0514C207.843 95.8063 207.927 96.4491 208.097 96.9797C208.272 97.5049 208.543 97.9069 208.909 98.1859C209.281 98.4594 209.763 98.5962 210.353 98.5962C210.939 98.5962 211.415 98.4594 211.781 98.1859C212.153 97.9124 212.424 97.5131 212.593 96.9879C212.768 96.4573 212.856 95.8118 212.856 95.0514C212.856 94.302 212.768 93.6675 212.593 93.1478C212.418 92.6281 212.148 92.2343 211.781 91.9662C211.415 91.6927 210.939 91.556 210.353 91.556C209.768 91.556 209.289 91.6927 208.917 91.9662C208.551 92.2343 208.28 92.6281 208.105 93.1478C207.93 93.6675 207.843 94.302 207.843 95.0514ZM216.667 94.1653C216.667 92.8852 216.79 91.7939 217.036 90.8913C217.282 89.9833 217.662 89.2557 218.177 88.7087C218.696 88.1562 219.364 87.7788 220.179 87.5764C220.879 87.3849 221.59 87.2208 222.312 87.084C223.034 86.9418 223.737 86.8187 224.421 86.7148L224.659 87.9128C224.314 87.962 223.953 88.0195 223.576 88.0851C223.198 88.1453 222.821 88.2109 222.443 88.282C222.066 88.3477 221.71 88.4188 221.377 88.4954C221.043 88.5665 220.748 88.6403 220.491 88.7169C220.026 88.8427 219.624 89.0615 219.284 89.3733C218.951 89.6851 218.685 90.1146 218.488 90.6616C218.297 91.2086 218.182 91.8979 218.144 92.7293H218.242C218.406 92.4886 218.631 92.2507 218.915 92.0155C219.2 91.7802 219.539 91.5861 219.933 91.4329C220.326 91.2742 220.77 91.1949 221.262 91.1949C222.039 91.1949 222.687 91.3645 223.207 91.7037C223.726 92.0373 224.117 92.5078 224.38 93.115C224.643 93.7222 224.774 94.4333 224.774 95.2484C224.774 96.2276 224.604 97.0508 224.265 97.7182C223.931 98.3856 223.461 98.8888 222.854 99.228C222.247 99.5617 221.533 99.7285 220.712 99.7285C220.078 99.7285 219.509 99.6054 219.005 99.3593C218.508 99.1131 218.084 98.7521 217.734 98.2762C217.389 97.8002 217.124 97.2177 216.938 96.5284C216.757 95.8392 216.667 95.0514 216.667 94.1653ZM220.819 98.5962C221.338 98.5962 221.784 98.4868 222.156 98.268C222.534 98.0491 222.824 97.7045 223.026 97.2341C223.234 96.7582 223.338 96.14 223.338 95.3797C223.338 94.4278 223.155 93.6839 222.788 93.1478C222.427 92.6063 221.847 92.3355 221.049 92.3355C220.551 92.3355 220.099 92.4421 219.695 92.6555C219.29 92.8634 218.948 93.1122 218.669 93.4022C218.39 93.6921 218.188 93.9519 218.062 94.1817C218.062 94.7396 218.103 95.2812 218.185 95.8063C218.267 96.3315 218.409 96.8047 218.612 97.2259C218.814 97.6471 219.093 97.9808 219.449 98.2269C219.81 98.4731 220.266 98.5962 220.819 98.5962ZM228.068 99.5644H226.476L229.069 95.7735C228.691 95.6915 228.341 95.552 228.019 95.355C227.696 95.1526 227.433 94.8764 227.231 94.5263C227.034 94.1762 226.935 93.7413 226.935 93.2217C226.935 92.3574 227.223 91.7009 227.797 91.2524C228.377 90.7983 229.14 90.5713 230.086 90.5713H234.066V99.5644H232.704V95.954H230.423L228.068 99.5644ZM228.256 93.2299C228.256 93.7659 228.448 94.1653 228.831 94.4278C229.214 94.6849 229.761 94.8135 230.472 94.8135H232.704V91.7119H230.234C229.534 91.7119 229.028 91.8541 228.716 92.1385C228.41 92.4175 228.256 92.7813 228.256 93.2299ZM243.571 91.7283H240.609V99.5644H239.263V91.7283H236.342V90.5713H243.571V91.7283ZM257.872 92.8278C257.872 93.3912 257.708 93.8316 257.38 94.1489C257.052 94.4607 256.628 94.6713 256.108 94.7807V94.8463C256.672 94.9229 257.156 95.1253 257.56 95.4535C257.971 95.7763 258.176 96.2713 258.176 96.9387C258.176 97.4529 258.053 97.9069 257.807 98.3008C257.56 98.6946 257.175 99.0037 256.65 99.228C256.125 99.4523 255.441 99.5644 254.598 99.5644H250.725V90.5713H254.566C255.211 90.5713 255.78 90.6452 256.272 90.7929C256.77 90.9351 257.161 91.1703 257.446 91.4985C257.73 91.8267 257.872 92.2698 257.872 92.8278ZM256.756 96.9387C256.756 96.4081 256.554 96.0252 256.149 95.7899C255.75 95.5547 255.167 95.4371 254.401 95.4371H252.096V98.4567H254.434C255.189 98.4567 255.763 98.3418 256.157 98.1121C256.557 97.8768 256.756 97.4857 256.756 96.9387ZM256.486 92.9837C256.486 92.557 256.33 92.2397 256.018 92.0319C255.706 91.8185 255.195 91.7119 254.483 91.7119H252.096V94.2966H254.246C254.984 94.2966 255.542 94.1899 255.919 93.9765C256.297 93.7632 256.486 93.4323 256.486 92.9837ZM264.481 99.7285C263.672 99.7285 262.958 99.5617 262.34 99.228C261.721 98.8943 261.24 98.3856 260.895 97.7018C260.551 97.018 260.379 96.1564 260.379 95.1171C260.379 94.0285 260.559 93.1396 260.92 92.4503C261.287 91.7556 261.79 91.2414 262.43 90.9077C263.07 90.5741 263.797 90.4072 264.612 90.4072C265.061 90.4072 265.493 90.4537 265.909 90.5467C266.33 90.6342 266.675 90.7464 266.943 90.8831L266.533 92.0237C266.259 91.9143 265.942 91.8158 265.581 91.7283C265.225 91.6408 264.891 91.597 264.58 91.597C263.956 91.597 263.436 91.731 263.021 91.9991C262.61 92.2671 262.301 92.661 262.093 93.1806C261.891 93.7003 261.79 94.3403 261.79 95.1007C261.79 95.8282 261.888 96.4491 262.085 96.9633C262.288 97.4775 262.586 97.8714 262.98 98.1449C263.379 98.4129 263.877 98.5469 264.473 98.5469C264.949 98.5469 265.378 98.4977 265.761 98.3992C266.144 98.2953 266.492 98.175 266.803 98.0382V99.2526C266.502 99.4058 266.166 99.5234 265.794 99.6054C265.428 99.6875 264.99 99.7285 264.481 99.7285ZM272.904 90.4072C273.669 90.4072 274.326 90.5768 274.873 90.9159C275.42 91.2551 275.838 91.731 276.128 92.3437C276.418 92.9509 276.563 93.662 276.563 94.4771V95.3222H270.352C270.368 96.378 270.631 97.1821 271.139 97.7346C271.648 98.2871 272.365 98.5633 273.289 98.5633C273.858 98.5633 274.361 98.5114 274.799 98.4074C275.237 98.3035 275.691 98.1503 276.161 97.9479V99.1459C275.707 99.3483 275.256 99.496 274.807 99.589C274.364 99.682 273.839 99.7285 273.232 99.7285C272.367 99.7285 271.613 99.5535 270.967 99.2034C270.327 98.8478 269.829 98.3281 269.474 97.6443C269.118 96.9606 268.94 96.1236 268.94 95.1335C268.94 94.1653 269.102 93.3282 269.424 92.6227C269.753 91.9115 270.212 91.3645 270.803 90.9816C271.399 90.5987 272.099 90.4072 272.904 90.4072ZM272.887 91.5231C272.16 91.5231 271.58 91.7611 271.148 92.237C270.715 92.7129 270.458 93.3776 270.376 94.2309H275.135C275.13 93.6948 275.045 93.2244 274.881 92.8196C274.722 92.4093 274.479 92.092 274.151 91.8678C273.823 91.638 273.401 91.5231 272.887 91.5231Z" fill="#9C666D"/>
</g>
<path d="M7.02399 52.2914C7.06706 51.8792 6.77277 51.4599 6.14111 51.0335L6.37798 50.5644C7.1532 50.9055 7.79203 51.0903 8.29449 51.1187C8.78259 51.1472 10.3187 50.9624 12.9027 50.5644C13.276 51.2467 13.2688 51.5665 12.8812 51.5238C12.4792 51.4812 12.1562 51.7441 11.9121 52.3127C12.5151 58.851 12.7663 62.2836 12.6658 62.6105C12.6084 62.7526 12.8525 62.6744 13.398 62.376C13.9866 62.0348 14.6254 61.5871 15.3145 61.0328C17.0803 59.5545 18.6092 57.9626 19.9012 56.257C21.2506 54.2813 22.5283 52.9381 23.7342 52.2274C24.5525 51.7583 25.2918 51.467 25.9522 51.3533L26.146 50.6923C26.6054 50.5502 26.8422 50.536 26.8566 50.6497C26.9571 51.5451 27.2585 52.4904 27.761 53.4853C27.8328 53.6417 27.9261 53.8193 28.0409 54.0183L28.1701 54.2528L28.2778 54.4661C28.4501 54.7788 28.5506 54.9991 28.5793 55.127C28.6224 55.3118 28.3424 55.5108 27.7395 55.724L27.5026 55.3615C26.5695 55.4752 25.7871 55.9016 25.1554 56.6407C24.8252 57.0103 24.1792 57.8418 23.2174 59.1352C22.2555 60.2439 20.9563 61.5445 19.3198 63.0369C21.3152 63.6765 22.8513 64.8989 23.928 66.704C24.3156 67.3721 24.7391 68.2746 25.1985 69.4117L25.8014 70.9042C26.0455 71.5438 26.2536 72.0697 26.4259 72.4819C27.1724 74.2586 28.1486 75.2891 29.3545 75.5733C29.9574 75.7155 30.4886 75.6799 30.948 75.4667C30.9336 75.1967 30.9552 75.0332 31.0126 74.9764C31.0844 74.8769 31.3284 74.7987 31.7447 74.7418V74.7845C31.7447 74.8271 31.7519 74.8769 31.7663 74.9337C31.7663 75.019 31.7735 75.0972 31.7878 75.1683C31.8165 75.3815 31.8452 75.6018 31.874 75.8292C31.9027 76.0992 31.9386 76.3693 31.9816 76.6394C32.0821 77.3358 32.1898 77.947 32.3046 78.4729C32.4338 79.141 32.5774 79.6456 32.7353 79.9867C32.7784 80.0862 32.6707 80.1857 32.4123 80.2852C32.1826 80.3847 32.0032 80.4202 31.874 80.3918C31.7735 80.3633 31.6658 80.3136 31.5509 80.2425C31.393 80.1572 31.2567 80.0578 31.1418 79.944C28.2563 80.9816 25.8086 80.0862 23.7988 77.2577C23.0954 76.2627 22.435 75.0119 21.8177 73.5053C21.6023 72.9651 21.3798 72.3611 21.1501 71.693C21.0784 71.4798 20.9922 71.2169 20.8917 70.9042L20.7625 70.5417L20.6549 70.2219C20.296 69.1559 19.6069 68.2462 18.5876 67.4929C17.5827 66.7538 16.5491 66.3771 15.4868 66.3629C14.6828 66.9883 13.7066 67.4147 12.5582 67.6421L13.118 79.1765C13.7928 79.1907 14.2163 79.2547 14.3885 79.3684C14.446 79.3968 14.5034 79.4821 14.5608 79.6242C14.6182 79.7522 14.6469 79.8872 14.6469 80.0293C14.6756 80.4131 14.5249 80.605 14.1947 80.605C13.1611 80.5908 10.778 80.74 7.04553 81.0527C6.88761 80.9816 6.80148 80.7329 6.78712 80.3065C6.78712 80.008 7.02399 79.8659 7.49774 79.8801C6.93786 64.1598 6.77995 54.9635 7.02399 52.2914ZM26.6628 65.4035C26.6341 65.6877 26.591 65.8796 26.5336 65.9791C26.7346 66.1923 26.9571 66.3913 27.2011 66.5761C27.2873 66.3345 27.3375 66.0786 27.3519 65.8086C27.3519 65.6948 27.359 65.574 27.3734 65.4461C27.3877 65.3466 27.3949 65.2471 27.3949 65.1476L26.6628 64.5293C26.6628 64.6857 26.67 64.8278 26.6843 64.9557C26.67 65.1263 26.6628 65.2755 26.6628 65.4035ZM26.3398 64.2308L25.866 63.8044C25.8517 63.975 25.8445 64.1242 25.8445 64.2522C25.8732 64.7638 26.0311 65.2471 26.3182 65.702C26.347 65.5882 26.3613 65.4816 26.3613 65.3821C26.3757 65.1405 26.3757 64.8562 26.3613 64.5293C26.3613 64.4298 26.3541 64.3303 26.3398 64.2308ZM27.4165 63.975C27.9046 63.9608 28.2204 63.8684 28.3639 63.6978C27.962 63.4704 27.5026 63.3709 26.9858 63.3993C26.713 63.4136 26.4116 63.4633 26.0814 63.5486L26.4474 63.9323H26.512L26.5336 63.9537H26.5982C26.6556 63.9679 26.7202 63.9679 26.792 63.9537C26.8925 63.9679 26.9858 63.975 27.0719 63.975C27.1868 63.975 27.3016 63.975 27.4165 63.975ZM28.5147 64.8491C28.9166 64.8633 29.2109 64.8278 29.3976 64.7425C29.1679 64.373 28.9095 64.0745 28.6224 63.8471L28.6439 63.8897C28.5147 64.0176 28.3281 64.1171 28.084 64.1882C27.9117 64.2308 27.6892 64.2593 27.4165 64.2735C27.2155 64.2877 27.0073 64.2806 26.792 64.2522C27.0073 64.4511 27.2155 64.6359 27.4165 64.8065L27.3949 64.7639L27.5887 64.7852L27.6103 64.8065H27.6749C27.7323 64.8065 27.7969 64.8065 27.8687 64.8065C27.9692 64.8207 28.0697 64.8349 28.1701 64.8491H28.5147ZM29.7852 65.6167C29.7421 65.4603 29.6847 65.304 29.6129 65.1476L29.5483 64.9984C29.3473 65.0837 28.9956 65.1334 28.4931 65.1476C28.3783 65.1476 28.2491 65.1476 28.1055 65.1476C28.005 65.1334 27.9046 65.1192 27.8041 65.105L28.407 65.5527L28.5793 65.5953H28.6008L28.6654 65.6167H28.8808L29.1607 65.638C29.2612 65.6522 29.3545 65.6593 29.4406 65.6593C29.5124 65.6593 29.5842 65.6451 29.656 65.6167L29.7206 65.5953L29.7636 65.574L29.7852 65.6167ZM28.8162 67.1944C28.9741 67.2228 29.1248 67.2299 29.2684 67.2157C29.5268 67.2157 29.7636 67.166 29.979 67.0665C29.6057 66.8106 29.2253 66.5406 28.8377 66.2563C28.852 66.4126 28.8664 66.5548 28.8808 66.6827C28.8664 66.9243 28.8449 67.0949 28.8162 67.1944ZM28.5362 66.3202C28.5219 66.2208 28.5003 66.1141 28.4716 66.0004L27.6964 65.3821C27.6677 65.5527 27.6533 65.7091 27.6533 65.8512L27.6103 66.0857L27.5887 66.3202C27.5457 66.505 27.5098 66.6472 27.4811 66.7467C27.7969 66.9314 28.1486 67.0665 28.5362 67.1517L28.5147 67.1304C28.529 67.1304 28.5434 67.0878 28.5577 67.0025C28.5721 66.903 28.5793 66.8035 28.5793 66.704C28.5649 66.5903 28.5506 66.4624 28.5362 66.3202ZM29.8928 65.8725L29.8282 65.8938C29.7421 65.9223 29.6201 65.9436 29.4622 65.9578C29.3043 65.9578 29.1248 65.9507 28.9238 65.9365C29.2684 66.1781 29.656 66.434 30.0866 66.704C30.0292 66.4197 29.9646 66.1426 29.8928 65.8725ZM29.2684 67.5142C28.608 67.5426 27.9476 67.3721 27.2873 67.0025C26.1819 66.3629 25.6004 65.4532 25.543 64.2735C25.543 64.0461 25.5646 63.8115 25.6076 63.5699C25.3205 63.3141 25.1195 63.108 25.0047 62.9516C24.9329 62.8095 24.9257 62.7313 24.9831 62.7171C25.0406 62.6887 25.1482 62.7313 25.3062 62.845C25.4928 62.9587 25.6722 63.108 25.8445 63.2927C26.2465 63.179 26.6197 63.108 26.9643 63.0795H26.9858C27.7036 63.0511 28.3281 63.243 28.8592 63.6552C29.2899 63.9963 29.6344 64.4583 29.8928 65.041C30.0938 65.4532 30.2374 65.9152 30.3235 66.4268C30.3666 66.5832 30.3953 66.7395 30.4097 66.8959V67.0238L30.4312 67.0665V67.1517L30.3666 67.1944C30.0508 67.3934 29.6847 67.5 29.2684 67.5142Z" fill="#4B2F33"/>
<path d="M63.634 76.2556L64.3662 76.3835L64.5169 77.3003C64.6748 77.3714 64.8758 77.414 65.1198 77.4282C65.3208 77.4424 65.529 77.414 65.7443 77.3429C65.9884 77.2719 66.2252 77.144 66.4549 76.9592C67.1584 76.3764 67.7541 75.1967 68.2422 73.42C68.6442 71.9844 68.96 70.2006 69.1897 68.0685C69.4625 65.638 69.606 63.3141 69.6204 61.0967L68.9313 60.3505L68.9959 59.6683H74.0994L74.164 60.4571C74.0635 60.4713 73.9702 60.4926 73.8841 60.5211C73.6831 60.6064 73.5898 60.7343 73.6041 60.9048C73.6903 63.6054 74.1066 66.3629 74.8531 69.1772C75.1976 70.4848 75.5565 71.5153 75.9298 72.2687C76.3174 73.0788 76.6763 73.4697 77.0065 73.4413C77.7386 73.3844 78.4205 72.6738 79.0522 71.3092C79.5546 70.2148 80.0069 68.7366 80.4088 66.8746C80.8682 64.7283 81.1984 62.6034 81.3994 60.4998L81.1194 60.2865L81.2917 59.6469L85.9215 59.4124L85.8569 60.2226C85.3544 60.4216 85.1032 60.5566 85.1032 60.6277C85.2324 66.5974 85.4836 70.8402 85.8569 73.356C86.0578 74.7916 86.3234 75.8789 86.6536 76.618C86.9838 77.3572 87.3929 77.7765 87.881 77.876C88.527 78.0039 89.2018 77.684 89.9052 76.9165C90.2641 76.5328 90.5512 76.1348 90.7666 75.7226L90.5943 75.2535L91.025 74.6779L94.0182 77.6841L93.8028 78.3237L92.8984 78.4516C92.5969 78.8638 92.1591 79.2689 91.5848 79.6669C90.422 80.4628 89.1587 80.8395 87.7949 80.7969C86.345 80.7684 85.1821 80.2212 84.3064 79.1552C83.603 78.3024 83.1005 77.144 82.7991 75.6799C82.5837 74.6281 82.4832 73.4768 82.4976 72.226C82.4976 71.6148 82.5191 71.096 82.5622 70.6696C82.3181 72.0199 81.8803 73.3347 81.2486 74.6139C80.6888 75.7368 80.0499 76.5825 79.3321 77.1511C78.4421 77.8617 77.4587 78.1176 76.382 77.9186C75.6786 77.7907 75.011 77.3643 74.3794 76.6394C73.8769 76.0566 73.4103 75.2962 72.9797 74.3581C72.4916 73.292 72.1327 72.2402 71.903 71.2026C71.7738 72.1407 71.5656 73.1641 71.2785 74.2728C70.6899 76.5043 69.9793 78.0749 69.1467 78.9846C68.07 80.1644 66.9 80.7613 65.6367 80.7755C65.005 80.7898 64.481 80.6832 64.0647 80.4557L63.2033 81.0527L62.665 80.7542L63.634 76.2556Z" fill="#4B2F33"/>
<path d="M96.7312 79.9227C96.9322 76.7531 97.0758 73.5834 97.1619 70.4138C97.2337 68.0117 97.3342 65.6948 97.4634 63.4633C97.5782 61.4023 97.6643 60.2865 97.7218 60.116C97.8223 59.8033 100.083 59.6114 104.505 59.5403C105.897 59.5119 107.534 59.4977 109.414 59.4977C109.73 59.4977 110.068 59.4977 110.427 59.4977C110.57 59.4977 110.721 59.4977 110.879 59.4977H111.288C111.891 59.4977 112.271 59.4977 112.429 59.4977C113.319 59.4835 113.807 62.7953 113.894 69.433C113.922 71.5082 113.908 73.7895 113.85 76.2769C113.822 77.5277 113.786 78.5653 113.743 79.3897C114.016 79.3755 114.224 79.34 114.367 79.2831C114.439 79.2405 114.504 79.2476 114.561 79.3044C114.604 79.3613 114.626 79.4395 114.626 79.539C114.654 79.7806 114.604 79.9796 114.475 80.1359C114.346 80.3065 113.563 80.5197 112.128 80.7755C110.678 81.0314 109.809 81.1096 109.522 81.0101C109.422 80.9816 109.407 80.676 109.479 80.0933C109.565 80.0933 109.651 80.072 109.738 80.0293C109.809 80.0009 109.874 79.9654 109.931 79.9227C110.003 79.8659 110.053 79.8019 110.082 79.7308C110.139 79.6171 110.139 77.2719 110.082 72.6951C110.068 71.9986 110.053 71.096 110.039 69.9874V69.3264C110.039 69.0564 110.039 68.8432 110.039 68.6868C110.025 68.1893 110.017 67.7771 110.017 67.4502C109.989 65.6451 109.974 64.4867 109.974 63.975C109.974 63.9181 109.953 63.7191 109.91 63.378C109.852 63.0227 109.816 62.8237 109.802 62.781C109.759 62.6673 109.493 62.6247 109.005 62.6531C108.919 62.6673 108.819 62.6815 108.704 62.6958H108.553L108.424 62.7171C108.223 62.7455 108.094 62.7597 108.036 62.7597C107.921 62.7597 107.735 62.7597 107.476 62.7597H107.11C106.952 62.7597 106.823 62.7597 106.723 62.7597C105.991 62.7739 105.373 62.781 104.871 62.781C103.249 62.7953 102.201 62.8308 101.727 62.8876C101.612 62.9019 101.512 62.9161 101.425 62.9303C101.296 62.9587 101.224 62.9871 101.21 63.0156C101.153 63.0724 101.102 63.2288 101.059 63.4846L100.736 79.6669C101.167 79.7379 101.425 79.8374 101.512 79.9654C101.598 80.1075 101.548 80.3562 101.361 80.7116L96.0206 80.8821C95.9201 80.4557 95.9057 80.1857 95.9775 80.072C96.0637 79.9725 96.3149 79.9227 96.7312 79.9227ZM95.4392 57.5149C95.3387 57.3017 95.3172 57.0956 95.3746 56.8966C95.4176 56.6976 95.5253 56.5555 95.6976 56.4702C95.8842 56.3849 96.0708 56.3849 96.2575 56.4702C96.4585 56.5555 96.6092 56.7047 96.7097 56.9179C96.8102 57.1311 96.8317 57.3372 96.7743 57.5362C96.7168 57.7352 96.602 57.8773 96.4297 57.9626C96.2575 58.0479 96.0708 58.0479 95.8699 57.9626C95.6832 57.8773 95.5397 57.7281 95.4392 57.5149Z" fill="#4B2F33"/>
<path d="M121.237 66.5335C121.28 65.5953 121.423 63.8186 121.667 61.2033C121.725 60.5069 121.911 60.0023 122.227 59.6896C122.385 59.519 122.694 59.4195 123.153 59.3911C123.368 59.3627 123.577 59.3556 123.778 59.3698L133.145 59.0926C133.331 59.1068 133.489 59.1921 133.618 59.3484C133.705 59.4622 133.74 59.7535 133.726 60.2226C133.683 61.1891 133.64 62.6887 133.597 64.7212C133.539 66.967 133.489 69.1274 133.446 71.2026C133.346 76.8028 133.346 79.7166 133.446 79.944C133.547 80.1999 133.697 80.3847 133.898 80.4984C133.999 80.5552 134.092 80.5908 134.178 80.605L134.071 81.3938L129.075 81.4791C129.003 81.3228 128.938 81.1735 128.881 81.0314C128.795 80.7329 128.809 80.5765 128.924 80.5623C129.096 80.5481 129.24 80.4486 129.355 80.2638C129.427 80.1644 129.477 80.072 129.506 79.9867L129.85 62.7171L124.962 62.8876C124.876 65.3893 124.725 67.9264 124.51 70.4991C124.237 73.8819 123.505 76.4191 122.313 78.1105C120.992 80.0151 119.033 80.9745 116.435 80.9887C116.262 81.1025 116.155 81.273 116.111 81.5004C116.111 81.5431 116.068 81.5644 115.982 81.5644C115.925 81.5644 115.839 81.5431 115.724 81.5004C115.609 81.472 115.487 81.4294 115.358 81.3725L115.616 77.3429L115.681 77.0658L116.155 76.9592L116.435 77.5135C116.621 77.5846 116.851 77.5988 117.124 77.5561C117.353 77.5277 117.59 77.4495 117.834 77.3216C118.121 77.1795 118.394 76.9734 118.652 76.7033C119.313 76.0069 119.858 74.9408 120.289 73.5053C120.806 71.7143 121.122 69.3904 121.237 66.5335ZM123.562 55.4468C123.533 55.5321 123.498 55.6316 123.455 55.7453C123.397 55.6884 123.289 55.6316 123.132 55.5747C123.045 55.5605 122.952 55.5463 122.852 55.5321C123.124 55.3473 123.383 55.1554 123.627 54.9564C123.627 55.127 123.605 55.2904 123.562 55.4468ZM122.873 56.4915C122.816 56.4489 122.73 56.3991 122.615 56.3423L122.485 56.257L122.335 56.193C122.234 56.1504 122.134 56.1077 122.033 56.0651C122.22 55.9372 122.414 55.8092 122.615 55.6813C122.686 55.6955 122.758 55.7097 122.83 55.724C122.916 55.7382 122.995 55.7595 123.067 55.7879C123.139 55.8021 123.203 55.8235 123.261 55.8519C123.318 55.8803 123.347 55.9016 123.347 55.9158H123.368C123.239 56.129 123.074 56.3209 122.873 56.4915ZM120.914 56.9819C120.827 56.9534 120.734 56.9179 120.634 56.8753L121 56.6621C121.028 56.6763 121.057 56.6834 121.086 56.6834C121.129 56.6976 121.165 56.7118 121.193 56.726C121.409 56.7829 121.595 56.8397 121.753 56.8966C121.811 56.925 121.868 56.9534 121.926 56.9819C121.581 57.0814 121.244 57.0814 120.914 56.9819ZM121.086 55.2549C121.172 55.3828 121.165 55.6103 121.064 55.9372C121.05 56.0082 121.028 56.0793 121 56.1504C120.971 56.2072 120.942 56.2641 120.914 56.3209C120.914 56.3494 120.906 56.3778 120.892 56.4062C120.878 56.4204 120.87 56.4346 120.87 56.4489L120.849 56.4702V56.4915L120.827 56.5341C120.741 56.5768 120.626 56.6265 120.483 56.6834C120.497 56.456 120.533 56.2499 120.591 56.0651C120.691 55.7382 120.856 55.4681 121.086 55.2549ZM121.237 55.1483C121.438 54.992 121.689 54.8854 121.99 54.8285C122.005 54.9706 121.962 55.1696 121.861 55.4255C121.832 55.4965 121.804 55.5676 121.775 55.6387C121.761 55.6955 121.739 55.7595 121.71 55.8306C121.682 55.9016 121.653 55.9585 121.624 56.0011L121.581 56.1077H121.603C121.445 56.193 121.287 56.2854 121.129 56.3849C121.186 56.2428 121.229 56.1077 121.258 55.9798C121.315 55.8092 121.344 55.66 121.344 55.5321C121.359 55.3757 121.33 55.2407 121.258 55.127L121.237 55.1483ZM121.538 56.5981C121.452 56.5697 121.359 56.5412 121.258 56.5128C121.445 56.4133 121.631 56.3067 121.818 56.193C121.875 56.2214 121.94 56.2428 122.012 56.257C122.084 56.2996 122.155 56.3351 122.227 56.3636C122.399 56.4346 122.557 56.5199 122.701 56.6194C122.543 56.7473 122.363 56.8468 122.162 56.9179C122.119 56.8611 122.005 56.79 121.818 56.7047C121.746 56.6763 121.653 56.6407 121.538 56.5981ZM122.636 54.7645L122.615 54.7859C122.615 54.7859 122.615 54.793 122.615 54.8072C122.615 54.8214 122.615 54.8356 122.615 54.8498C122.615 54.8925 122.608 54.9422 122.593 54.9991C122.579 55.0417 122.557 55.0986 122.529 55.1696C122.5 55.2265 122.471 55.2833 122.442 55.3402C122.442 55.3686 122.435 55.397 122.421 55.4255C122.407 55.4397 122.399 55.4539 122.399 55.4681L122.378 55.4894V55.5321H122.356L122.313 55.6387C122.184 55.7382 122.04 55.8306 121.883 55.9158C121.911 55.859 121.94 55.795 121.969 55.724C121.997 55.6387 122.026 55.5605 122.055 55.4894C122.17 55.1625 122.213 54.928 122.184 54.7859H122.313C122.414 54.7716 122.521 54.7645 122.636 54.7645ZM123.411 54.8285C123.139 55.0275 122.887 55.2194 122.658 55.4042C122.715 55.262 122.758 55.1412 122.787 55.0417C122.816 54.9422 122.83 54.864 122.83 54.8072V54.7645C123.017 54.7788 123.21 54.8001 123.411 54.8285ZM123.778 54.7006L123.713 54.6793H123.691C123.677 54.6793 123.663 54.6721 123.648 54.6579C123.634 54.6579 123.62 54.6579 123.605 54.6579C123.505 54.6295 123.397 54.6082 123.282 54.594C122.938 54.5513 122.608 54.5442 122.292 54.5727C121.861 54.6153 121.488 54.7361 121.172 54.9351C120.784 55.1767 120.526 55.5392 120.397 56.0224C120.325 56.2499 120.289 56.5057 120.289 56.79C120.117 56.8611 119.973 56.9392 119.858 57.0245C119.758 57.0956 119.708 57.1524 119.708 57.1951C119.708 57.2377 119.765 57.2448 119.88 57.2164C120.009 57.188 120.181 57.1169 120.397 57.0032C120.555 57.0743 120.705 57.1311 120.849 57.1738C121.251 57.2875 121.646 57.2875 122.033 57.1738C122.378 57.0885 122.701 56.9179 123.002 56.6621C123.376 56.3351 123.627 55.9514 123.756 55.5108C123.842 55.2407 123.856 54.992 123.799 54.7645L123.778 54.7006Z" fill="#4B2F33"/>
<path d="M140.725 60.7768C140.524 62.9941 140.387 65.2968 140.315 67.6847C140.244 69.7741 140.258 71.501 140.359 72.8655C140.488 74.557 140.739 75.6372 141.112 76.1063C141.643 77.1439 142.526 77.6769 143.761 77.7053C144.909 77.7764 145.957 77.2718 146.905 76.1915C147.838 75.1255 148.455 73.9102 148.757 72.5457C148.972 71.4797 149.23 69.9233 149.532 67.8765C149.819 65.7729 149.998 63.5485 150.07 61.2032L149.317 60.7342V59.9453C150.408 60.0732 151.125 60.1017 151.47 60.0306C151.814 59.9737 152.583 59.9595 153.774 59.988L153.731 60.4997L153.257 60.7342C153.042 69.0634 153.185 74.0453 153.688 75.6798C153.946 76.5611 154.377 76.9235 154.98 76.7673C155.281 76.6961 155.554 76.5398 155.798 76.2981L155.841 75.5093L156.681 75.36L156.789 79.9653L156.961 81.1805L156.078 81.1166C156.064 80.9744 156.006 80.8394 155.906 80.7115C155.719 80.4414 155.432 80.3206 155.045 80.349C154.542 80.4059 153.975 80.3135 153.343 80.0719C152.654 79.816 152.188 79.5033 151.944 79.1339C151.499 78.4515 151.219 77.5703 151.104 76.49C150.86 77.0017 150.53 77.5632 150.113 78.1743C149.295 79.3683 148.441 80.1643 147.551 80.5622C147.307 80.6759 147.027 80.7897 146.711 80.9035C146.309 81.0455 145.9 81.1592 145.484 81.2445C144.393 81.5003 143.38 81.5927 142.447 81.5217C139.777 81.2942 138.126 79.7663 137.495 76.9378C136.533 72.5599 136.612 67.3009 137.731 61.1606L136.935 60.7768L137.021 59.988C137.997 60.1159 138.7 60.1301 139.131 60.0306C139.576 59.9453 140.315 59.8885 141.349 59.86L141.392 60.5849L140.725 60.7768Z" fill="#4B2F33"/>
<path d="M160.191 76.2556L160.923 76.3835L161.074 77.3003C161.232 77.3714 161.433 77.414 161.677 77.4282C161.878 77.4424 162.086 77.414 162.301 77.3429C162.545 77.2719 162.782 77.144 163.012 76.9592C163.715 76.3764 164.311 75.1967 164.799 73.42C165.201 71.9844 165.517 70.2006 165.747 68.0685C166.02 65.638 166.163 63.3141 166.178 61.0967L165.488 60.3505L165.553 59.6683H170.657L170.721 60.4571C170.621 60.4713 170.527 60.4926 170.441 60.5211C170.24 60.6064 170.147 60.7343 170.161 60.9048C170.247 63.6054 170.664 66.3629 171.41 69.1772C171.755 70.4848 172.114 71.5153 172.487 72.2687C172.875 73.0788 173.233 73.4697 173.564 73.4413C174.296 73.3844 174.978 72.6738 175.609 71.3092C176.112 70.2148 176.564 68.7366 176.966 66.8746C177.425 64.7283 177.755 62.6034 177.956 60.4998L177.677 60.2865L177.849 59.6469L182.479 59.4124L182.414 60.2226C181.912 60.4216 181.66 60.5566 181.66 60.6277C181.789 66.5974 182.041 70.8402 182.414 73.356C182.615 74.7916 182.881 75.8789 183.211 76.618C183.541 77.3572 183.95 77.7765 184.438 77.876C185.084 78.0039 185.759 77.684 186.462 76.9165C186.821 76.5328 187.108 76.1348 187.324 75.7226L187.151 75.2535L187.582 74.6779L190.575 77.6841L190.36 78.3237L189.456 78.4516C189.154 78.8638 188.716 79.2689 188.142 79.6669C186.979 80.4628 185.716 80.8395 184.352 80.7969C182.902 80.7684 181.739 80.2212 180.864 79.1552C180.16 78.3024 179.658 77.144 179.356 75.6799C179.141 74.6281 179.04 73.4768 179.055 72.226C179.055 71.6148 179.076 71.096 179.119 70.6696C178.875 72.0199 178.437 73.3347 177.806 74.6139C177.246 75.7368 176.607 76.5825 175.889 77.1511C174.999 77.8617 174.016 78.1176 172.939 77.9186C172.236 77.7907 171.568 77.3643 170.936 76.6394C170.434 76.0566 169.967 75.2962 169.537 74.3581C169.049 73.292 168.69 72.2402 168.46 71.2026C168.331 72.1407 168.123 73.1641 167.836 74.2728C167.247 76.5043 166.536 78.0749 165.704 78.9846C164.627 80.1644 163.457 80.7613 162.194 80.7755C161.562 80.7898 161.038 80.6832 160.622 80.4557L159.76 81.0527L159.222 80.7542L160.191 76.2556Z" fill="#4B2F33"/>
<path d="M197.445 65.8512C196.885 66.9456 196.54 68.0259 196.411 69.0919C203.732 68.5802 207.745 68.3031 208.448 68.2604L208.319 67.6848L208.211 67.1091C208.111 66.6685 208.018 66.2989 207.931 66.0004C207.716 65.2329 207.436 64.6217 207.092 64.1669C206.245 63.0298 204.673 62.4897 202.376 62.5465C201.184 62.5749 200.143 62.9303 199.253 63.6125C198.536 64.1669 197.933 64.9131 197.445 65.8512ZM198.198 60.713C200.553 59.3911 203.259 59.0144 206.316 59.583C208.872 60.052 210.472 61.8287 211.118 64.9131C211.334 65.908 211.441 67.0451 211.441 68.3244C211.441 68.5376 211.441 68.7721 211.441 69.0279C211.427 69.1985 211.42 69.3975 211.42 69.6249C211.391 70.1082 211.377 70.3854 211.377 70.4564C211.377 70.7833 211.341 71.0534 211.269 71.2666C211.197 71.4514 211.104 71.5935 210.989 71.693C210.86 71.8067 210.731 71.8636 210.602 71.8636L196.648 72.759C197.337 74.7205 198.342 76.1277 199.663 76.9805C200.725 77.677 201.952 77.9968 203.345 77.9399C203.905 77.9257 204.472 77.8546 205.046 77.7267C205.52 77.613 205.993 77.4709 206.467 77.3003C206.998 77.1013 207.436 76.9023 207.781 76.7033L207.673 75.8931C208.276 75.8079 208.578 75.8221 208.578 75.9358C209.051 77.0445 209.805 78.2668 210.839 79.6029L210.365 80.3705L209.482 79.7308C208.506 80.1572 207.336 80.4984 205.972 80.7542C204.78 80.9816 203.639 81.0811 202.548 81.0527C201.199 81.0101 199.964 80.7613 198.844 80.3065C197.667 79.8374 196.633 79.1268 195.743 78.1744C194.882 77.2506 194.207 76.1703 193.719 74.9337C192.714 72.3611 192.614 69.6676 193.418 66.8533C194.222 64.0816 195.815 62.0348 198.198 60.713Z" fill="#4B2F33"/>
<path d="M213.638 60.2652L213.38 59.7749C214.858 59.718 216.724 59.6256 218.978 59.4977C219.021 59.5403 219.057 59.5901 219.086 59.6469C219.115 59.6896 219.136 59.7393 219.151 59.7962C219.165 59.8672 219.165 59.9383 219.151 60.0094C219.122 60.0804 219.064 60.1444 218.978 60.2013C218.921 60.2297 218.835 60.2581 218.72 60.2865C218.605 60.315 218.49 60.3221 218.375 60.3079L218.505 68.7081C224.39 69.0208 227.376 68.9498 227.463 68.4949C227.764 66.7467 227.872 64.9273 227.786 63.0369C227.743 62.0988 227.664 61.3312 227.549 60.7343C227.161 60.6348 226.917 60.5353 226.817 60.4358C226.716 60.3363 226.637 60.1018 226.58 59.7322L231.856 59.2418L231.769 59.8601C231.267 60.0165 231.03 60.1373 231.059 60.2226C231.317 60.9759 231.511 63.8897 231.64 68.964C231.655 69.8879 231.676 70.9255 231.705 72.0768C231.719 72.887 231.733 73.8961 231.748 75.1043C231.791 77.677 231.827 79.2973 231.856 79.9654C231.856 80.008 231.899 80.0506 231.985 80.0933C232.056 80.1217 232.157 80.1501 232.286 80.1786C232.444 80.207 232.595 80.2283 232.738 80.2425L232.803 80.9461L227.355 81.0527L227.333 80.4557C227.448 80.4699 227.577 80.4699 227.721 80.4557C227.836 80.4415 227.929 80.406 228.001 80.3491C228.101 80.2923 228.166 80.207 228.195 80.0933C228.238 79.9796 228.252 79.5034 228.238 78.6648C228.209 77.7836 228.166 76.8881 228.109 75.9784C227.922 73.4626 227.671 72.226 227.355 72.2687C226.838 72.3397 226.041 72.3468 224.965 72.29C224.649 72.2616 224.182 72.226 223.565 72.1834L222.854 72.1407C222.582 72.1265 222.352 72.1123 222.165 72.0981C221.089 72.027 220.299 72.0199 219.797 72.0768C219.151 72.1621 218.828 72.3539 218.828 72.6524C218.828 73.1073 218.842 75.4738 218.871 79.7522C219.33 79.8232 219.603 79.9227 219.689 80.0506C219.718 80.0933 219.725 80.1644 219.71 80.2638C219.696 80.3349 219.675 80.4202 219.646 80.5197C219.603 80.6334 219.553 80.74 219.495 80.8395L214.284 80.7542L214.241 80.1146C214.327 80.1146 214.42 80.1004 214.521 80.072C214.607 80.0578 214.679 80.0293 214.736 79.9867C214.808 79.9298 214.851 79.8588 214.865 79.7735C215.167 77.7836 215.303 75.481 215.274 72.8656C215.246 70.8331 215.117 68.6371 214.887 66.2776C214.801 65.4248 214.707 64.5364 214.607 63.6125C214.564 63.2572 214.514 62.8948 214.456 62.5252C214.442 62.3688 214.428 62.2054 214.413 62.0348C214.399 61.9211 214.377 61.779 214.349 61.6084C214.262 60.9972 214.219 60.6277 214.219 60.4998C214.191 60.3008 214.205 60.2794 214.262 60.4358L213.638 60.2652Z" fill="#4B2F33"/>
<path d="M234.956 63.4846C234.985 62.4044 235.021 60.8693 235.064 58.8794C235.38 58.7515 235.581 58.7373 235.667 58.8368C235.681 58.851 235.703 58.8865 235.732 58.9434L235.753 59.05L235.796 59.1352C235.868 59.3058 235.94 59.384 236.012 59.3698C237.131 59.3129 238.675 59.2774 240.641 59.2632C242.206 59.2632 244.001 59.2703 246.025 59.2845C248.35 59.3129 250.468 59.3484 252.377 59.3911V59.05L253.045 58.9434V63.1648L252.313 63.0795L252.076 62.4826C250.669 62.2978 249.449 62.2125 248.415 62.2267C247.066 62.2409 246.132 62.3902 245.616 62.6744C245.515 62.7313 245.458 63.6694 245.443 65.4887C245.443 66.9385 245.465 68.9213 245.508 71.4372C245.565 74.3083 245.644 77.1724 245.745 80.0293C246.175 79.944 246.441 79.944 246.542 80.0293C246.642 80.1288 246.685 80.3278 246.671 80.6263C246.671 80.7827 246.664 80.9248 246.649 81.0527L241.266 80.9674L241.093 80.3278L241.783 79.9867C241.826 77.3287 241.84 74.621 241.826 71.8636C241.783 66.3771 241.596 63.4278 241.266 63.0156C241.108 62.8308 240.713 62.71 240.081 62.6531C239.579 62.6105 238.94 62.6105 238.165 62.6531C237.275 62.71 236.413 62.7953 235.581 62.909L235.409 63.4846C235.107 63.5557 234.956 63.5557 234.956 63.4846ZM250.095 70.9468C250.296 70.9752 250.432 71.0036 250.504 71.0321C250.662 70.9042 250.798 70.762 250.913 70.6057C250.755 70.5488 250.583 70.5133 250.396 70.4991C250.31 70.4848 250.224 70.4706 250.138 70.4564C250.066 70.4564 250.001 70.4493 249.944 70.4351C249.786 70.6199 249.635 70.7833 249.492 70.9255C249.736 70.9255 249.937 70.9326 250.095 70.9468ZM248.996 71.4585C249.111 71.4727 249.219 71.4798 249.319 71.4798C249.664 71.4656 249.987 71.3661 250.288 71.1813C250.217 71.1671 250.152 71.16 250.095 71.16C249.922 71.1458 249.729 71.1387 249.513 71.1387C249.441 71.1387 249.37 71.1387 249.298 71.1387L248.996 71.4585ZM249.126 70.4351C249.126 70.094 249.068 69.8737 248.953 69.7742C248.781 70.0442 248.702 70.3569 248.716 70.7123C248.716 70.897 248.752 71.1031 248.824 71.3306C248.925 71.2311 249.011 71.1458 249.083 71.0747L249.104 71.0321V70.9894C249.104 70.961 249.104 70.9397 249.104 70.9255C249.104 70.897 249.111 70.8686 249.126 70.8402C249.126 70.7833 249.126 70.7194 249.126 70.6483C249.126 70.5772 249.126 70.5062 249.126 70.4351ZM249.75 69.6889C249.764 69.4188 249.743 69.2198 249.685 69.0919C249.413 69.234 249.205 69.4117 249.061 69.6249V69.6036C249.161 69.6889 249.233 69.8097 249.276 69.966C249.305 70.0798 249.327 70.229 249.341 70.4138C249.341 70.5559 249.334 70.6981 249.319 70.8402C249.449 70.6981 249.578 70.563 249.707 70.4351H249.664L249.685 70.3285V70.3072C249.685 70.293 249.693 70.2788 249.707 70.2645C249.707 70.2219 249.707 70.1793 249.707 70.1366C249.721 70.0655 249.729 69.9945 249.729 69.9234C249.729 69.8523 249.736 69.7742 249.75 69.6889ZM250.288 68.8361C250.174 68.8645 250.073 68.9 249.987 68.9427L249.858 69.0066C249.915 69.1203 249.944 69.3549 249.944 69.7102C249.944 69.7813 249.944 69.8666 249.944 69.966C249.93 70.0371 249.922 70.1082 249.922 70.1793C250.023 70.0371 250.13 69.9021 250.245 69.7742L250.267 69.6462C250.296 69.4188 250.31 69.2269 250.31 69.0706C250.31 69.0137 250.303 68.964 250.288 68.9213C250.288 68.9071 250.288 68.8929 250.288 68.8787C250.274 68.8645 250.267 68.8574 250.267 68.8574L250.288 68.8361ZM250.999 69.4757C251.171 69.4757 251.293 69.4899 251.365 69.5183C251.379 69.4046 251.387 69.3051 251.387 69.2198C251.387 69.0351 251.351 68.8716 251.279 68.7295C251.107 68.9853 250.92 69.2412 250.719 69.497C250.82 69.4828 250.913 69.4757 250.999 69.4757ZM250.762 69.6889C250.69 69.7031 250.619 69.7173 250.547 69.7315C250.389 69.9163 250.238 70.0869 250.095 70.2432C250.209 70.2574 250.317 70.2716 250.418 70.2859L250.59 70.3072L250.762 70.3498C250.877 70.364 250.97 70.3854 251.042 70.4138C251.171 70.1864 251.265 69.9518 251.322 69.7102V69.7315C251.322 69.7173 251.286 69.7031 251.214 69.6889C251.157 69.6747 251.092 69.6676 251.021 69.6676C250.949 69.6676 250.863 69.6747 250.762 69.6889ZM250.461 68.7721L250.482 68.8147C250.497 68.8716 250.504 68.9498 250.504 69.0493C250.518 69.163 250.518 69.2909 250.504 69.433C250.676 69.1914 250.855 68.9356 251.042 68.6655C250.841 68.6797 250.647 68.7152 250.461 68.7721ZM251.58 69.1985C251.595 69.6533 251.473 70.1011 251.214 70.5417C251.013 70.8686 250.755 71.1316 250.439 71.3306C250.095 71.558 249.721 71.6788 249.319 71.693C249.176 71.693 249.011 71.6788 248.824 71.6504C248.652 71.8351 248.508 71.9631 248.393 72.0341C248.293 72.091 248.236 72.0981 248.221 72.0555C248.207 72.0128 248.236 71.9346 248.307 71.8209C248.393 71.7072 248.508 71.5935 248.652 71.4798C248.566 71.1955 248.515 70.9397 248.501 70.7123C248.487 70.2148 248.63 69.7884 248.932 69.433C249.161 69.1488 249.484 68.9213 249.901 68.7508C250.188 68.6229 250.504 68.5305 250.848 68.4736C250.963 68.4594 251.071 68.4452 251.171 68.431C251.2 68.431 251.229 68.431 251.257 68.431H251.365L251.387 68.4736C251.516 68.6868 251.58 68.9285 251.58 69.1985Z" fill="#4B2F33"/>
<path d="M260.836 78.1547L260.85 78.1573L260.865 78.1589C260.966 78.1714 261.053 78.1838 261.128 78.1958C261.254 78.2261 261.38 78.2491 261.506 78.265C261.819 78.309 262.119 78.3387 262.405 78.3537C263.185 78.3982 263.881 78.3553 264.485 78.2135L264.497 78.2105C265.385 77.9788 266.072 77.5197 266.476 76.7987C266.874 76.0908 266.957 75.2053 266.804 74.1977V74.1961C266.655 73.2355 266.202 72.4596 265.441 71.9067L265.433 71.9011L265.425 71.8956C264.815 71.4879 264.063 71.2336 263.192 71.1125L263.191 71.1122C262.202 70.9769 261.234 71.0065 260.286 71.2034L259.94 71.2753L259.892 71.6259C259.761 72.5978 259.687 73.5836 259.672 74.5832C259.65 75.5696 259.701 76.3641 259.843 76.9399C259.972 77.4675 260.239 78.0457 260.836 78.1547ZM258.347 80.5149L258.343 80.5145C257.811 80.4432 257.506 80.3713 257.374 80.3152L257.363 80.3107C257.338 80.3007 257.253 80.2506 257.118 80.0809L257.112 80.0727L257.105 80.0647C257.094 80.0525 257.051 79.9872 257.009 79.8115C256.969 79.6459 256.939 79.4192 256.926 79.1232L256.969 60.3302L256.97 59.9538L256.773 59.8969L260.084 59.5919L260.094 59.6684L259.539 59.8271L259.152 59.9379L259.178 60.3396L259.695 68.4627L259.726 68.9526L260.217 68.9304C263.598 68.7768 265.97 69.4606 267.451 70.8621C268.917 72.2479 269.512 74.3497 269.108 77.2964C268.988 78.1843 268.599 78.8842 267.937 79.4228C267.263 79.9715 266.277 80.3763 264.935 80.6022L264.931 80.6028C263.925 80.7802 262.769 80.8504 261.461 80.8088C260.475 80.7668 259.437 80.6691 258.347 80.5149ZM275.387 59.6344C275.785 59.6554 276.093 59.6874 276.32 59.7273L276.298 59.741C276.201 59.7899 276.107 59.8449 276.023 59.9076L276.013 59.9155C275.825 60.0636 275.627 60.2835 275.59 60.5878L275.589 60.5953L275.588 60.6029C275.428 62.3264 275.342 64.3663 275.327 66.7201C275.299 68.6189 275.32 70.6728 275.392 72.8818C275.478 75.4167 275.594 77.6419 275.738 79.5552L275.778 80.084L276.304 80.0131L276.632 79.9686C276.636 79.9779 276.641 79.996 276.641 80.0292C276.641 80.096 276.622 80.2078 276.557 80.375C276.501 80.4781 276.434 80.5268 276.347 80.5537L276.338 80.5567L276.328 80.5599C276.222 80.5976 275.982 80.6302 275.554 80.6173C275.386 80.6034 275.156 80.5826 274.863 80.555L274.649 80.5337L274.625 80.5314H274.6H274.422C274.244 80.5056 274.08 80.4902 273.933 80.4888C273.223 80.4305 272.545 80.3863 271.901 80.3566C271.869 80.0611 271.9 79.8558 271.958 79.7166L271.976 79.7121L272.004 79.6979C272.004 79.6979 272.005 79.6978 272.005 79.6978H272.016H272.077L272.136 79.683L272.216 79.6632C272.39 79.6243 272.586 79.5504 272.739 79.3984C272.914 79.2252 272.985 78.9997 272.966 78.7735V78.7697C272.753 76.3806 272.681 72.5864 272.753 67.3728C272.796 64.7608 272.861 62.3914 272.946 60.264L272.961 59.914L272.636 59.7812L272.295 59.6414C273.604 59.5965 274.633 59.5947 275.387 59.6344Z" fill="#4B2F33"/>
<path d="M56.6882 59.745C58.6862 60.2539 60.2391 61.8166 60.8556 63.9617C62.0511 68.1216 59.6892 74.9442 48.641 79.4854C37.5929 74.9442 35.231 68.1216 36.4265 63.9617C37.043 61.8166 38.5959 60.2539 40.5939 59.745C42.5823 59.2385 45.1996 59.7331 47.9944 62.1022L48.641 62.6504M56.6882 59.745L56.8116 59.2608M56.6882 59.745C54.6998 59.2385 52.0825 59.7331 49.2877 62.1022L48.641 62.6504M48.641 62.6504L48.6411 61.3394M48.6411 61.3394C51.6218 58.8126 54.5629 58.1717 56.9351 58.7759C59.3073 59.3802 61.111 61.2299 61.8167 63.6855M48.6411 61.3394C45.6603 58.8126 42.7192 58.1717 40.347 58.7759M40.347 58.7759C37.9748 59.3802 36.1711 61.2299 35.4654 63.6855M40.347 58.7759L40.4704 59.2605M35.4654 63.6855L35.9456 63.8235M35.4654 63.6855C34.0621 68.5684 37.0016 75.8497 48.4533 80.4889L48.641 80.5649L48.8288 80.4889C60.2805 75.8497 63.22 68.5684 61.8167 63.6855M61.8167 63.6855L61.3361 63.8236" stroke="#4B2F33"/>
<path d="M48.3178 61.7207L48.6411 61.9948L48.9644 61.7207C51.8522 59.2728 54.6314 58.705 56.8117 59.2604C58.9968 59.817 60.6751 61.5232 61.3362 63.8235C62.639 68.3567 59.9715 75.4354 48.6411 80.0254C37.3107 75.4354 34.6432 68.3567 35.946 63.8235C36.6071 61.5232 38.2854 59.817 40.4705 59.2604C42.6508 58.705 45.43 59.2728 48.3178 61.7207Z" fill="#AD6A75"/>
<path d="M289.797 14.2745L290.202 14.4851L290.448 14.0998C293.039 10.0436 296.15 8.42726 298.941 8.44546C301.741 8.46373 304.352 10.1266 305.951 12.9029C309.113 18.3949 308.291 28.3458 296.451 37.7813C281.475 35.5239 275.782 27.317 275.772 20.9811C275.767 17.7785 277.196 15.0344 279.612 13.6198C282.02 12.2099 285.523 12.0557 289.797 14.2745Z" fill="#D8C3B2"/>
<path fill-rule="evenodd" clip-rule="evenodd" d="M306.818 12.4038C310.327 18.4983 309.142 29.0354 296.902 38.7001L296.733 38.8335L296.52 38.8024C281.083 36.547 274.784 28.0136 274.772 20.9827C274.767 17.487 276.334 14.3807 279.107 12.7568C281.804 11.1773 285.535 11.0618 289.854 13.1828C292.532 9.1886 295.821 7.42509 298.947 7.44549C302.162 7.46645 305.073 9.37387 306.818 12.4038ZM298.941 8.44547C296.15 8.42726 293.039 10.0436 290.448 14.0998L290.202 14.485L289.797 14.2744C285.523 12.0557 282.02 12.2099 279.612 13.6198C277.196 15.0344 275.767 17.7784 275.772 20.9811C275.783 27.3169 281.475 35.5239 296.451 37.7813C308.291 28.3457 309.113 18.3948 305.951 12.9028C304.352 10.1266 301.741 8.46373 298.941 8.44547Z" fill="#AF9580"/>
<path fill-rule="evenodd" clip-rule="evenodd" d="M280.596 28.2664C279.192 26.6453 278.186 24.8969 277.684 23.7674L278.598 23.3613C279.063 24.408 280.018 26.0711 281.352 27.6117C282.69 29.1568 284.371 30.5333 286.28 31.084L286.002 32.0448C283.832 31.4185 281.996 29.8831 280.596 28.2664Z" fill="#AF9580"/>
<path fill-rule="evenodd" clip-rule="evenodd" d="M283.918 29.0116C282.723 28.4143 281.946 27.2924 281.694 26.7878L282.588 26.3409C282.78 26.7253 283.426 27.6478 284.365 28.1171L283.918 29.0116Z" fill="#AF9580"/>
<path fill-rule="evenodd" clip-rule="evenodd" d="M292.526 42.1571C292.426 42.7538 292.502 43.4145 293.006 43.8654C293.266 44.0976 293.561 44.2424 293.881 44.2857C294.198 44.3288 294.505 44.2673 294.784 44.1426C295.328 43.899 295.801 43.4003 296.165 42.8212C296.895 41.6628 297.339 39.9467 296.973 38.4536L296.879 38.0687L296.483 38.0725C295.854 38.0786 295.234 38.3864 294.708 38.79C294.172 39.2005 293.68 39.7502 293.298 40.3325C292.918 40.9115 292.627 41.5539 292.526 42.1571ZM296.081 39.1508C295.847 39.2315 295.588 39.3751 295.316 39.5835C294.881 39.917 294.463 40.3799 294.134 40.881C293.803 41.3856 293.584 41.8976 293.512 42.3223C293.44 42.7533 293.532 42.9937 293.673 43.1196L293.673 43.1199C293.802 43.2357 293.917 43.2815 294.016 43.2948C294.116 43.3085 294.235 43.2928 294.375 43.2299C294.669 43.0983 295.009 42.78 295.319 42.2884C295.859 41.4304 296.196 40.2242 296.081 39.1508Z" fill="#AF9580"/>
<path fill-rule="evenodd" clip-rule="evenodd" d="M303.501 38.2813C303.913 38.7247 304.213 39.318 304.039 39.9721C303.95 40.3088 303.783 40.5922 303.54 40.8042C303.299 41.0148 303.008 41.1322 302.707 41.1813C302.119 41.2771 301.45 41.1203 300.827 40.8371C299.581 40.2707 298.266 39.0818 297.75 37.6336L297.617 37.2603L297.95 37.0456C298.479 36.7047 299.166 36.6211 299.827 36.6687C300.5 36.7172 301.213 36.9057 301.853 37.182C302.488 37.4567 303.085 37.8331 303.501 38.2813ZM298.878 37.7254C299.118 37.6642 299.414 37.6415 299.755 37.6661C300.302 37.7055 300.906 37.8621 301.456 38.0999C302.01 38.3393 302.475 38.6461 302.768 38.9616C303.065 39.2819 303.121 39.533 303.073 39.7156L303.073 39.716C303.028 39.8839 302.958 39.9853 302.883 40.0506C302.806 40.1173 302.698 40.1695 302.546 40.1943C302.229 40.246 301.77 40.1671 301.241 39.9268C300.318 39.5072 299.373 38.6848 298.878 37.7254Z" fill="#AF9580"/>
<path fill-rule="evenodd" clip-rule="evenodd" d="M296.957 37.0995C297.214 36.9978 297.504 37.1235 297.606 37.3802C297.825 37.9336 297.972 38.555 298.1 39.1719C298.141 39.3715 298.18 39.5695 298.219 39.766C298.303 40.1917 298.386 40.6111 298.487 41.0279C298.783 42.2486 299.197 43.2468 300.029 43.8316C301.009 44.5191 302.04 44.7539 303.267 45.0334C303.432 45.071 303.601 45.1094 303.773 45.1499C304.487 45.3171 305.289 45.5905 306.019 45.99C306.745 46.3876 307.432 46.9268 307.873 47.6402C308.663 48.9149 308.248 50.3488 307.899 51.4181C307.797 51.7306 307.684 52.0342 307.577 52.3226C307.558 52.3728 307.54 52.4226 307.522 52.4719C307.397 52.8091 307.283 53.1271 307.192 53.4451C307.013 54.0739 306.933 54.684 307.064 55.3617C307.167 55.8903 307.623 56.4915 308.216 56.8251C308.794 57.1503 309.366 57.1589 309.805 56.7604C310.01 56.5748 310.326 56.59 310.511 56.7944C310.697 56.9989 310.682 57.3151 310.477 57.5007C309.615 58.2837 308.539 58.1543 307.726 57.6966C306.928 57.2473 306.251 56.421 306.082 55.5521C305.912 54.6715 306.025 53.8947 306.23 53.1714C306.332 52.8132 306.458 52.4638 306.584 52.125C306.603 52.0734 306.622 52.0221 306.641 51.971C306.748 51.6819 306.853 51.3998 306.948 51.1082C307.313 49.991 307.539 48.9997 307.023 48.1667C306.704 47.6508 306.176 47.2159 305.539 46.8672C304.905 46.5203 304.192 46.275 303.545 46.1235C303.381 46.0851 303.217 46.0479 303.052 46.0106C301.839 45.7367 300.607 45.4582 299.455 44.6502C298.304 43.8418 297.821 42.5227 297.515 41.264C297.409 40.8257 297.319 40.3704 297.233 39.9341C297.195 39.7429 297.158 39.5553 297.12 39.3744C296.994 38.7656 296.862 38.2162 296.676 37.7485C296.575 37.4918 296.7 37.2012 296.957 37.0995Z" fill="#AF9580"/>
<path fill-rule="evenodd" clip-rule="evenodd" d="M323.718 36.8231L324.146 36.9195C324.815 37.0701 325.463 37.5123 326.019 38.0465C326.582 38.5882 327.092 39.2643 327.477 39.9512C327.859 40.6324 328.139 41.3597 328.207 42.0047C328.274 42.6384 328.141 43.347 327.491 43.7106L327.491 43.7106C326.818 44.087 326.122 43.9588 325.546 43.589C324.986 43.2298 324.503 42.6288 324.137 41.9477C323.41 40.598 323.024 38.7137 323.567 37.235L323.718 36.8231ZM324.375 38.0626C324.178 39.123 324.46 40.4393 325.017 41.4736C325.336 42.0666 325.718 42.5112 326.086 42.7473C326.437 42.9727 326.732 42.9893 327.003 42.838M324.375 38.0626C324.677 38.2158 325 38.4544 325.326 38.7674C325.812 39.2349 326.263 39.8309 326.605 40.4403C326.95 41.0555 327.164 41.6487 327.212 42.1095C327.262 42.5815 327.135 42.764 327.003 42.8379" fill="#BC8C89"/>
<path fill-rule="evenodd" clip-rule="evenodd" d="M318.514 37.9615C318.217 38.2818 318.161 38.5329 318.21 38.7155L318.21 38.7159C318.254 38.8838 318.325 38.9853 318.4 39.0506C318.476 39.1173 318.584 39.1695 318.736 39.1942C319.054 39.246 319.513 39.1671 320.042 38.9268C320.965 38.5073 321.909 37.6849 322.404 36.7254C322.164 36.6642 321.869 36.6415 321.527 36.6661C320.98 36.7055 320.377 36.8621 319.826 37.0999C319.273 37.3392 318.807 37.646 318.514 37.9615ZM321.455 35.6687C322.117 35.6211 322.804 35.7047 323.332 36.0457L323.665 36.2604L323.532 36.6336C323.017 38.0818 321.702 39.2708 320.456 39.8372C319.833 40.1203 319.164 40.2771 318.575 40.1812C318.274 40.1322 317.984 40.0148 317.742 39.8042C317.499 39.5921 317.332 39.3085 317.243 38.9716L317.726 38.8438L317.243 38.972C317.243 38.9719 317.243 38.9717 317.243 38.9716C317.07 38.3177 317.37 37.7245 317.781 37.2812C318.198 36.833 318.794 36.4566 319.43 36.1819C320.069 35.9056 320.782 35.7171 321.455 35.6687Z" fill="#BC8C89"/>
<path fill-rule="evenodd" clip-rule="evenodd" d="M322.348 38.5313C323.067 37.4282 323.266 36.5983 323.266 36.2294H324.266C324.266 36.8606 323.966 37.8807 323.185 39.0776C322.396 40.2875 321.099 41.7071 319.053 43.139C318.179 43.751 317.605 44.7216 317.273 45.9547C316.94 47.1897 316.861 48.6528 316.953 50.187C317.137 53.2555 317.998 56.5073 318.737 58.5601L317.796 58.8988C317.035 56.7849 316.146 53.4367 315.955 50.2468C315.859 48.6519 315.937 47.0712 316.307 45.6947C316.678 44.3165 317.354 43.1079 318.48 42.3198C320.434 40.9518 321.637 39.6213 322.348 38.5313Z" fill="#BC8C89"/>
<path d="M329.383 16.125L329.628 16.5033L330.029 16.2983C333.893 14.326 337.061 14.4778 339.238 15.7423C341.422 17.011 342.72 19.4614 342.725 22.3176C342.736 27.9608 337.628 35.2916 324.057 37.2726C313.295 28.7778 312.541 19.8781 315.374 14.9963C316.809 12.5253 319.159 11.0513 321.686 11.0438C324.204 11.0362 327.023 12.4869 329.383 16.125Z" fill="#D6B3B1"/>
<path fill-rule="evenodd" clip-rule="evenodd" d="M324.057 37.2726C313.295 28.7777 312.541 19.878 315.374 14.9962C316.808 12.5253 319.159 11.0513 321.686 11.0437C324.204 11.0362 327.023 12.4869 329.382 16.125L329.628 16.5033L330.029 16.2983C333.893 14.326 337.06 14.4778 339.237 15.7423C341.422 17.011 342.72 19.4614 342.725 22.3176C342.736 27.9608 337.628 35.2916 324.057 37.2726ZM329.974 15.2097C327.526 11.6282 324.531 10.0352 321.683 10.0437C318.747 10.0525 316.093 11.7652 314.509 14.4942C311.321 19.9872 312.453 29.4742 323.608 38.1918L323.775 38.3226L323.986 38.293C338.009 36.3159 343.737 28.6654 343.725 22.3157C343.719 19.1609 342.278 16.3518 339.74 14.8776C337.278 13.4476 333.887 13.331 329.974 15.2097Z" fill="#BC8C89"/>
<path fill-rule="evenodd" clip-rule="evenodd" d="M337.284 28.0648C338.448 26.7218 339.28 25.2719 339.684 24.3613L340.598 24.7673C340.157 25.7609 339.273 27.296 338.04 28.7195C336.811 30.1385 335.195 31.4919 333.28 32.0447L333.002 31.0839C334.656 30.6067 336.117 29.4122 337.284 28.0648Z" fill="#BC8C89"/>
<path fill-rule="evenodd" clip-rule="evenodd" d="M334.917 28.117C335.856 27.6477 336.502 26.7252 336.694 26.3409L337.588 26.7877C337.336 27.2923 336.56 28.4142 335.365 29.0115L334.917 28.117Z" fill="#BC8C89"/>
<path d="M331.641 65.0644H288.641V100.064H331.641V65.0644Z" fill="#AD6A75"/>
<path fill-rule="evenodd" clip-rule="evenodd" d="M288.141 64.5644H332.141V100.564H288.141V64.5644ZM289.141 65.5644V99.5644H331.141V65.5644H289.141Z" fill="#89525B"/>
<path d="M333.641 58.0644H285.641V66.0644H333.641V58.0644Z" fill="#AD6A75"/>
<path fill-rule="evenodd" clip-rule="evenodd" d="M285.141 57.5644H334.141V66.5644H285.141V57.5644ZM286.141 58.5644V65.5644H333.141V58.5644H286.141Z" fill="#89525B"/>
<path d="M312.641 65.0644H306.641V100.064H312.641V65.0644Z" fill="#D6B3B1"/>
<path fill-rule="evenodd" clip-rule="evenodd" d="M306.141 64.5644H313.141V100.564H306.141V64.5644ZM307.141 65.5644V99.5644H312.141V65.5644H307.141Z" fill="#AC6F7A"/>
<path d="M318.141 50.5819C315.491 49.7068 312.141 54.2384 310.797 56.6136L311.891 57.9885C313.922 57.801 321.454 51.6757 318.141 50.5819Z" fill="#CC9592"/>
<path d="M318.985 51.3632C320.381 53.707 322.754 59.1446 321.079 62.1449C319.414 65.1274 314.955 64.2597 312.896 63.4409C312.884 63.438 312.872 63.433 312.86 63.4263C312.872 63.4312 312.884 63.4361 312.896 63.4409C313.056 63.4786 313.231 63.161 312.86 61.5824C312.46 59.8823 311.943 58.5823 311.735 58.1447C314.308 56.7593 319.36 53.4634 318.985 51.3632Z" fill="#D6B3B1"/>
<path d="M313.992 77.3512C313.227 70.5856 311.325 65.9113 309.633 64.2089C309.982 64.464 312.125 63.7952 313.153 63.4289C313.51 63.7056 314.606 63.9568 315.11 64.0478L316.432 64.4367C318.8 65.4256 320.629 70.8561 321.247 73.4477L316.888 71.0404L313.992 77.3512Z" fill="#D6B3B1"/>
<path d="M307.439 57.4419C307.477 57.3318 307.524 57.2237 307.584 57.1236C308.801 55.0785 310.455 55.3097 311.61 57.114C311.678 57.2207 311.732 57.3364 311.775 57.4555L313.295 61.6771C313.671 63.3051 312.57 64.2855 311.502 64.3834L309.653 64.6276L307.774 64.3834C306.24 64.0755 305.801 63.2894 305.957 61.8687C305.971 61.7414 306.002 61.6161 306.044 61.495L307.439 57.4419Z" fill="#D6B3B1"/>
<path d="M301.141 50.5819C303.791 49.7068 307.141 54.2384 308.485 56.6136L307.391 57.9885C305.36 57.801 297.828 51.6757 301.141 50.5819Z" fill="#CC9592"/>
<path d="M300.297 51.3632C298.902 53.707 296.529 59.1446 298.204 62.1449C299.869 65.1274 304.328 64.2597 306.386 63.4409C306.399 63.438 306.411 63.433 306.423 63.4263C306.411 63.4312 306.399 63.4361 306.386 63.4409C306.226 63.4786 306.052 63.161 306.423 61.5824C306.823 59.8823 307.34 58.5823 307.548 58.1447C304.975 56.7593 299.923 53.4634 300.297 51.3632Z" fill="#D6B3B1"/>
<path d="M305.289 77.3512C306.055 70.5856 307.957 65.9113 309.648 64.2089C309.299 64.464 307.156 63.7952 306.128 63.4289C305.772 63.7056 304.675 63.9568 304.172 64.0478L302.85 64.4367C300.481 65.4256 298.653 70.8561 298.035 73.4477L302.394 71.0404L305.289 77.3512Z" fill="#D6B3B1"/>
<path fill-rule="evenodd" clip-rule="evenodd" d="M311.385 56.5703L312.087 57.4535C312.241 57.4084 312.436 57.3331 312.669 57.2219C313.038 57.0465 313.466 56.7997 313.923 56.4993C314.838 55.8981 315.841 55.1004 316.679 54.2779C317.53 53.4422 318.159 52.6305 318.392 52.0046C318.507 51.6955 318.5 51.5003 318.454 51.3847C318.416 51.2866 318.312 51.1509 317.989 51.0442C317.485 50.8778 316.913 50.9547 316.275 51.2603C315.635 51.5668 314.969 52.0851 314.321 52.7253C313.128 53.9042 312.059 55.4288 311.385 56.5703ZM315.854 50.3823C316.632 50.0101 317.473 49.8487 318.294 50.1198C318.799 50.2865 319.184 50.5815 319.36 51.0285C319.529 51.458 319.461 51.9223 319.304 52.3441C318.993 53.1802 318.233 54.1166 317.361 54.9725C316.476 55.8414 315.423 56.6785 314.458 57.3128C313.975 57.63 313.507 57.9011 313.088 58.1008C312.679 58.2954 312.277 58.4418 311.936 58.4733L311.674 58.4974L310.212 56.6598L310.374 56.374C311.06 55.161 312.259 53.3942 313.637 52.0327C314.326 51.3525 315.079 50.7535 315.854 50.3823Z" fill="#AC6F7A"/>
<path fill-rule="evenodd" clip-rule="evenodd" d="M318.506 51.4488L319.403 51.1143C320.118 52.3153 321.08 54.3009 321.652 56.3788C322.217 58.4285 322.44 60.7041 321.503 62.3823C320.548 64.094 318.797 64.6552 317.121 64.7059C315.477 64.7558 313.804 64.3233 312.737 63.9016C312.692 63.8873 312.653 63.8692 312.62 63.8506L313.04 62.9768C313.004 62.9647 312.959 62.9554 312.904 62.9575C312.805 62.9614 312.718 63.002 312.657 63.0575C312.608 63.1031 312.588 63.1459 312.582 63.1628C312.583 63.1555 312.586 63.1427 312.588 63.123C312.607 62.9515 312.584 62.5366 312.385 61.694C311.993 60.0249 311.487 58.758 311.295 58.3541L311.096 57.9359L311.504 57.7163C312.772 57.0331 314.65 55.8795 316.157 54.6456C316.911 54.0274 317.553 53.4048 317.98 52.8255C318.42 52.2287 318.563 51.7704 318.506 51.4488ZM312.579 63.1703C312.579 63.1701 312.58 63.1674 312.582 63.1628C312.58 63.1681 312.58 63.1704 312.579 63.1703ZM313.561 63.1662C314.526 63.49 315.831 63.7712 317.092 63.733C318.597 63.6873 319.934 63.1963 320.653 61.9078C321.392 60.5857 321.266 58.6423 320.714 56.6372C320.322 55.2139 319.734 53.8277 319.182 52.7365C319.065 52.9655 318.921 53.1888 318.764 53.4028C318.268 54.0755 317.556 54.7572 316.773 55.3987C315.355 56.5606 313.638 57.6421 312.358 58.3578C312.621 59.0024 313.014 60.1146 313.333 61.4712C313.522 62.2771 313.587 62.8148 313.561 63.1662Z" fill="#AC6F7A"/>
<path fill-rule="evenodd" clip-rule="evenodd" d="M313.241 62.881L313.452 63.0443C313.486 63.0707 313.57 63.1181 313.718 63.1772C313.859 63.233 314.028 63.2881 314.21 63.3399C314.573 63.4434 314.957 63.5256 315.197 63.5688L315.222 63.5735L316.595 63.9773L316.62 63.9876C317.328 64.2835 317.95 64.888 318.487 65.6063C319.028 66.3319 319.515 67.2175 319.938 68.1378C320.785 69.9787 321.406 72.0159 321.72 73.3348L321.976 74.4063L317.111 71.72L313.705 79.144L313.509 77.406C313.129 74.054 312.47 71.2304 311.701 69.0427C310.927 66.8414 310.059 65.3273 309.288 64.552L309.921 63.816C309.883 63.7886 309.852 63.778 309.84 63.7748C309.846 63.7757 309.856 63.7769 309.871 63.7778C309.924 63.7808 310.008 63.7776 310.127 63.7631C310.363 63.7342 310.672 63.669 311.018 63.5804C311.707 63.4042 312.485 63.1505 312.99 62.9704L313.241 62.881ZM310.644 64.6643C311.339 65.6339 312.019 67.0103 312.619 68.72C313.281 70.6031 313.858 72.921 314.256 75.6092L316.664 70.3609L320.486 72.4716C320.151 71.2998 319.661 69.8653 319.054 68.5446C318.647 67.6597 318.193 66.8403 317.707 66.1886C317.223 65.5402 316.736 65.0988 316.268 64.8957L314.997 64.522C314.732 64.4732 314.33 64.3864 313.943 64.2761C313.743 64.2191 313.54 64.1539 313.359 64.0819C313.273 64.0477 313.183 64.0087 313.097 63.9643C312.583 64.1415 311.891 64.3619 311.259 64.5235C311.049 64.5773 310.84 64.626 310.644 64.6643Z" fill="#AC6F7A"/>
<path fill-rule="evenodd" clip-rule="evenodd" d="M311.503 64.3835C312.571 64.2856 313.671 63.3052 313.295 61.6772L311.773 57.4508C311.732 57.3348 311.68 57.2222 311.613 57.1183C310.458 55.3089 308.8 55.0766 307.582 57.1277C307.524 57.2251 307.478 57.3304 307.441 57.4376L306.042 61.4999C306.002 61.6178 305.972 61.7397 305.958 61.8637C305.8 63.2875 306.239 64.0752 307.774 64.3835L309.653 64.6277L311.503 64.3835ZM309.652 63.6459L311.395 63.4159L311.414 63.4141C311.697 63.3882 311.988 63.241 312.175 63.0031C312.337 62.7966 312.465 62.4655 312.358 61.9477L310.858 57.7806C310.835 57.7168 310.812 57.6724 310.793 57.6423C310.294 56.8619 309.836 56.6579 309.583 56.648C309.376 56.6399 308.936 56.7549 308.419 57.6247C308.402 57.6537 308.382 57.696 308.362 57.7545L306.963 61.8168C306.941 61.8811 306.93 61.932 306.925 61.9707C306.857 62.5925 306.947 62.8634 307.036 62.9936C307.113 63.1077 307.314 63.2933 307.934 63.4227L309.652 63.6459Z" fill="#AC6F7A"/>
<path fill-rule="evenodd" clip-rule="evenodd" d="M307.898 56.5703L307.196 57.4535C307.041 57.4084 306.847 57.3331 306.613 57.2219C306.245 57.0465 305.817 56.7997 305.36 56.4993C304.445 55.8981 303.441 55.1004 302.604 54.2779C301.752 53.4422 301.124 52.6305 300.891 52.0046C300.776 51.6955 300.783 51.5003 300.829 51.3847C300.867 51.2866 300.971 51.1509 301.294 51.0442C301.798 50.8778 302.37 50.9547 303.008 51.2603C303.648 51.5668 304.313 52.0851 304.961 52.7253C306.155 53.9042 307.223 55.4288 307.898 56.5703ZM303.428 50.3823C302.651 50.0101 301.81 49.8487 300.989 50.1198C300.484 50.2865 300.098 50.5815 299.923 51.0285C299.754 51.458 299.822 51.9223 299.979 52.3441C300.29 53.1802 301.05 54.1166 301.922 54.9725C302.806 55.8414 303.86 56.6785 304.825 57.3128C305.308 57.63 305.775 57.9011 306.195 58.1008C306.603 58.2954 307.006 58.4418 307.347 58.4733L307.609 58.4974L309.071 56.6598L308.909 56.374C308.223 55.161 307.024 53.3942 305.646 52.0327C304.957 51.3525 304.204 50.7535 303.428 50.3823Z" fill="#AC6F7A"/>
<path fill-rule="evenodd" clip-rule="evenodd" d="M300.777 51.4488L299.88 51.1143C299.165 52.3153 298.203 54.3009 297.63 56.3788C297.066 58.4285 296.842 60.7041 297.779 62.3823C298.735 64.094 300.486 64.6552 302.162 64.7059C303.806 64.7558 305.478 64.3233 306.546 63.9016C306.59 63.8873 306.629 63.8692 306.662 63.8506L306.242 62.9768C306.278 62.9647 306.324 62.9554 306.378 62.9575C306.478 62.9614 306.564 63.002 306.625 63.0575C306.675 63.1031 306.695 63.1459 306.701 63.1628C306.699 63.1555 306.697 63.1427 306.695 63.123C306.676 62.9515 306.699 62.5366 306.897 61.694C307.29 60.0249 307.796 58.758 307.988 58.3541L308.187 57.9359L307.779 57.7163C306.51 57.0331 304.632 55.8795 303.126 54.6456C302.372 54.0274 301.73 53.4048 301.303 52.8255C300.863 52.2287 300.72 51.7704 300.777 51.4488ZM306.703 63.1703C306.703 63.1701 306.703 63.1674 306.701 63.1628C306.702 63.1681 306.703 63.1704 306.703 63.1703ZM305.722 63.1662C304.757 63.49 303.452 63.7712 302.191 63.733C300.686 63.6873 299.349 63.1963 298.629 61.9078C297.891 60.5857 298.017 58.6423 298.569 56.6372C298.961 55.2139 299.549 53.8277 300.101 52.7365C300.218 52.9655 300.361 53.1888 300.519 53.4028C301.015 54.0755 301.726 54.7572 302.509 55.3987C303.928 56.5606 305.645 57.6421 306.925 58.3578C306.662 59.0024 306.269 60.1146 305.95 61.4712C305.76 62.2771 305.696 62.8148 305.722 63.1662Z" fill="#AC6F7A"/>
<path fill-rule="evenodd" clip-rule="evenodd" d="M306.042 62.881L305.831 63.0443C305.797 63.0707 305.713 63.1181 305.564 63.1772C305.424 63.233 305.254 63.2881 305.073 63.3399C304.709 63.4434 304.325 63.5256 304.086 63.5688L304.06 63.5735L302.688 63.9773L302.663 63.9876C301.954 64.2835 301.332 64.888 300.796 65.6063C300.254 66.3319 299.768 67.2175 299.345 68.1378C298.498 69.9787 297.877 72.0159 297.563 73.3348L297.307 74.4063L302.171 71.72L305.577 79.144L305.774 77.406C306.153 74.054 306.813 71.2304 307.582 69.0427C308.355 66.8414 309.224 65.3273 309.995 64.552L309.362 63.816C309.4 63.7886 309.43 63.778 309.443 63.7748C309.437 63.7757 309.427 63.7769 309.412 63.7778C309.359 63.7808 309.275 63.7776 309.156 63.7631C308.92 63.7342 308.611 63.669 308.265 63.5804C307.576 63.4042 306.798 63.1505 306.293 62.9704L306.042 62.881ZM308.639 64.6643C307.943 65.6339 307.264 67.0103 306.663 68.72C306.002 70.6031 305.424 72.921 305.027 75.6092L302.619 70.3609L298.797 72.4716C299.132 71.2998 299.622 69.8653 300.229 68.5446C300.636 67.6597 301.09 66.8403 301.576 66.1886C302.06 65.5402 302.547 65.0988 303.015 64.8957L304.285 64.522C304.55 64.4732 304.952 64.3864 305.339 64.2761C305.539 64.2191 305.742 64.1539 305.924 64.0819C306.01 64.0477 306.099 64.0087 306.186 63.9643C306.699 64.1415 307.392 64.3619 308.023 64.5235C308.234 64.5773 308.443 64.626 308.639 64.6643Z" fill="#AC6F7A"/>
</svg>
