<svg width="21" height="25" viewBox="0 0 21 25" fill="none" xmlns="http://www.w3.org/2000/svg">
<path d="M0.0424805 2.3043C0.0424805 0.918112 1.54324 0.0512206 2.74493 0.743271L20.0838 10.7287C20.6375 11.0475 20.9787 11.6376 20.9787 12.2762C20.9787 12.9166 20.6356 13.508 20.0797 13.8262L2.74321 23.7483C1.54042 24.4367 0.0424805 23.5687 0.0424805 22.1834C0.0424805 21.5346 0.391179 20.9358 0.955603 20.6154L9.79217 15.5988C12.3684 14.1362 12.3774 10.4287 9.80821 8.95371L0.94721 3.86654C0.387554 3.54524 0.0424805 2.94938 0.0424805 2.3043Z" fill="#989898"/>
<path fill-rule="evenodd" clip-rule="evenodd" d="M19.038 16.5069L5.25075 24.4218L5.04736 24.0675L18.8346 16.1526L19.038 16.5069Z" fill="#989898"/>
<path fill-rule="evenodd" clip-rule="evenodd" d="M7.30876 9.4549L2.49294 6.65866L2.69806 6.30538L7.51388 9.10162L7.30876 9.4549Z" fill="#989898"/>
</svg>
