<svg width="21" height="25" viewBox="0 0 21 25" fill="none" xmlns="http://www.w3.org/2000/svg">
<path d="M20.9575 2.3043C20.9575 0.918112 19.4568 0.0512206 18.2551 0.743271L0.916182 10.7287C0.362532 11.0475 0.021349 11.6376 0.021349 12.2762C0.021349 12.9166 0.364351 13.508 0.920345 13.8262L18.2568 23.7483C19.4596 24.4367 20.9575 23.5687 20.9575 22.1834C20.9575 21.5346 20.6088 20.9358 20.0444 20.6154L11.2078 15.5988C8.63158 14.1362 8.62264 10.4287 11.1918 8.95371L20.0528 3.86654C20.6124 3.54524 20.9575 2.94938 20.9575 2.3043Z" fill="#989898"/>
<path fill-rule="evenodd" clip-rule="evenodd" d="M1.96202 16.5069L15.7493 24.4218L15.9526 24.0675L2.1654 16.1526L1.96202 16.5069Z" fill="#989898"/>
<path fill-rule="evenodd" clip-rule="evenodd" d="M13.6912 9.4549L18.5071 6.65866L18.3019 6.30538L13.4861 9.10162L13.6912 9.4549Z" fill="#989898"/>
</svg>
