<svg width="28" height="30" viewBox="0 0 28 30" fill="none" xmlns="http://www.w3.org/2000/svg">
<path d="M9.236 14.9235L8.61346 19.4124C8.59055 19.5779 8.61303 19.7465 8.67848 19.9002C8.74393 20.0539 8.8499 20.187 8.98508 20.2851C9.12025 20.3833 9.27956 20.443 9.44598 20.4577C9.6124 20.4724 9.77969 20.4416 9.92999 20.3686L13.9935 18.3897L18.0704 20.3691C18.2208 20.4419 18.3881 20.4725 18.5545 20.4577C18.7209 20.4428 18.8801 20.3831 19.0152 20.2848C19.1503 20.1866 19.2562 20.0535 19.3216 19.8997C19.387 19.746 19.4094 19.5774 19.3865 19.4119L18.7603 14.9359L21.9019 11.6707C22.0177 11.5503 22.0987 11.4007 22.1361 11.2379C22.1736 11.075 22.1661 10.9051 22.1145 10.7462C22.0629 10.5873 21.9691 10.4454 21.8431 10.3356C21.7172 10.2258 21.5637 10.1523 21.3993 10.123L16.9484 9.3356L14.8134 5.33843C14.7348 5.19102 14.6175 5.06776 14.4743 4.98181C14.331 4.89586 14.167 4.85046 14 4.85046C13.8329 4.85046 13.6689 4.89586 13.5257 4.98181C13.3824 5.06776 13.2651 5.19102 13.1865 5.33843L11.062 9.32782L6.60064 10.123C6.43617 10.1523 6.28276 10.2258 6.15679 10.3356C6.03083 10.4454 5.93704 10.5873 5.88543 10.7462C5.83383 10.9051 5.82635 11.075 5.8638 11.2379C5.90125 11.4007 5.98221 11.5503 6.09805 11.6707L9.236 14.9235ZM11.2277 10.2507C11.365 10.2263 11.4949 10.1709 11.6076 10.0888C11.7203 10.0067 11.8129 9.90007 11.8782 9.77689L13.9862 5.77924L14.4 5.55893L13.9867 5.77957L16.1217 9.77674C16.1871 9.90006 16.2798 10.0068 16.3927 10.0889C16.5056 10.171 16.6358 10.2263 16.7733 10.2506L21.2264 11.0205L18.0852 14.2857C17.9879 14.3861 17.9149 14.5073 17.8716 14.6402C17.8284 14.7731 17.8161 14.9141 17.8357 15.0525L18.4794 19.5253L14.403 17.5464C14.2776 17.4849 14.1398 17.453 14.0001 17.453C13.8605 17.453 13.7227 17.4849 13.5973 17.5464L9.542 19.5409L10.165 15.0511C10.1843 14.913 10.1719 14.7722 10.1286 14.6396C10.0854 14.507 10.0125 14.386 9.9155 14.2857L6.7655 11.0457L11.2277 10.2507Z" fill="#454545"/>
<path d="M25.3905 15.3744C25.6072 14.4846 25.7173 13.5721 25.7186 12.6562C25.7186 9.54824 24.484 6.56753 22.2863 4.36984C20.0886 2.17215 17.1079 0.9375 13.9999 0.9375C10.8919 0.9375 7.91115 2.17215 5.71346 4.36984C3.51577 6.56753 2.28112 9.54824 2.28112 12.6562C2.28233 13.5721 2.39259 14.4845 2.60957 15.3743C1.70292 16.1758 1.10777 17.2712 0.928717 18.468C0.749663 19.6649 0.998163 20.8865 1.63054 21.9183C2.26293 22.9501 3.23872 23.7259 4.38646 24.1096C5.53419 24.4932 6.78041 24.4601 7.90612 24.0159V28.5938C7.90613 28.6618 7.92096 28.7291 7.94958 28.7908C7.9782 28.8526 8.01993 28.9073 8.07185 28.9513C8.12378 28.9953 8.18467 29.0275 8.25028 29.0456C8.31589 29.0637 8.38465 29.0672 8.45179 29.0561L13.9999 28.1314L19.5479 29.0561C19.5734 29.0603 19.5991 29.0624 19.6249 29.0625C19.7492 29.0625 19.8684 29.0131 19.9563 28.9252C20.0442 28.8373 20.0936 28.7181 20.0936 28.5938V24.0159C21.2192 24.459 22.4648 24.4915 23.612 24.1076C24.7591 23.7238 25.7343 22.9481 26.3664 21.9168C26.9986 20.8855 27.2473 19.6644 27.0688 18.468C26.8903 17.2716 26.2961 16.1764 25.3905 15.3744ZM13.9999 1.875C16.8583 1.87818 19.5987 3.01507 21.6199 5.03626C23.641 7.05745 24.7779 9.79786 24.7811 12.6562C24.782 13.5896 24.6596 14.5189 24.4172 15.4202C23.7731 17.8355 22.3127 19.9532 20.284 21.4136C19.996 21.6209 19.6978 21.8136 19.3905 21.991L19.3898 21.9915L19.3864 21.9937C19.1579 22.1287 18.9167 22.2501 18.7114 22.3507C17.2438 23.0658 15.6328 23.4374 14.0003 23.4375C12.3679 23.4376 10.7568 23.0661 9.28921 22.3512C9.0832 22.2501 8.84198 22.1287 8.60953 21.991C8.30137 21.8131 8.00235 21.6199 7.7136 21.412C5.68525 19.951 4.22537 17.8327 3.58209 15.4172C3.33984 14.5169 3.21763 13.5886 3.21862 12.6562C3.2218 9.79786 4.35869 7.05745 6.37988 5.03626C8.40107 3.01507 11.1415 1.87818 13.9999 1.875ZM6.03112 23.4375C5.21547 23.4376 4.41728 23.2012 3.73322 22.757C3.04915 22.3128 2.50855 21.6798 2.17687 20.9346C1.8452 20.1894 1.73668 19.3641 1.86446 18.5585C1.99224 17.7529 2.35084 17.0017 2.89682 16.3957C2.90653 16.4246 2.91979 16.452 2.92964 16.481C3.02896 16.7685 3.13696 17.0528 3.25837 17.3309C3.26868 17.3546 3.28035 17.3778 3.29085 17.4012C3.41398 17.6783 3.54768 17.95 3.69196 18.2165C3.70471 18.2399 3.71629 18.2642 3.72946 18.2877C3.87651 18.5549 4.03589 18.8153 4.20318 19.0702C4.22901 19.1097 4.25428 19.1494 4.28062 19.1886C4.44737 19.4363 4.62339 19.6773 4.80867 19.9117C4.83862 19.9497 4.86899 19.987 4.89946 20.0246C5.09039 20.2606 5.28913 20.4902 5.49778 20.7109C5.52023 20.7347 5.54367 20.7574 5.56631 20.7812C6.00762 21.2404 6.48564 21.6629 6.99562 22.0444C7.02585 22.0671 7.05534 22.0905 7.08585 22.1128C7.32854 22.2907 7.57854 22.4586 7.83585 22.6168C7.8599 22.6317 7.88203 22.6493 7.90617 22.6641V22.9982C7.32329 23.287 6.68161 23.4373 6.03112 23.4375ZM8.84362 23.2781V23.1765L8.87643 23.193C10.329 23.9042 11.9148 24.3025 13.5311 24.362V27.2592L8.84362 28.0403V23.2781ZM19.1561 28.0403L14.4686 27.2592V24.362C16.0851 24.3025 17.671 23.9041 19.1236 23.1926C19.1341 23.1876 19.1451 23.1821 19.1561 23.1766V28.0403ZM21.9686 23.4375C21.3181 23.4373 20.6765 23.2869 20.0936 22.998V22.6641C20.1167 22.65 20.1377 22.6332 20.1607 22.619C20.4177 22.46 20.6679 22.2918 20.9115 22.1145C20.9443 22.0905 20.9759 22.0654 21.0083 22.041C21.2609 21.8519 21.5073 21.6552 21.7432 21.4468L21.7471 21.4432C21.984 21.2337 22.2102 21.0129 22.4291 20.7855C22.4538 20.7598 22.4793 20.735 22.5038 20.7091C22.7115 20.4894 22.9092 20.2609 23.0991 20.0262C23.1301 19.988 23.161 19.95 23.1914 19.9114C23.3769 19.6764 23.5534 19.4348 23.7207 19.1867C23.7457 19.1495 23.7697 19.1117 23.7943 19.0742C23.9634 18.8164 24.1244 18.5539 24.2729 18.2835C24.2829 18.2653 24.2919 18.2466 24.3018 18.2283C24.4512 17.9529 24.5895 17.6716 24.7168 17.3845C24.7238 17.3687 24.7316 17.3534 24.7385 17.3377C24.8627 17.0535 24.9732 16.7633 25.0743 16.4693C25.0829 16.4444 25.0944 16.4207 25.1028 16.3957C25.6488 17.0016 26.0074 17.7529 26.1352 18.5584C26.263 19.364 26.1545 20.1894 25.8228 20.9345C25.4912 21.6797 24.9506 22.3127 24.2665 22.757C23.5825 23.2012 22.7843 23.4376 21.9686 23.4375Z" fill="#454545"/>
</svg>
