<svg width="28" height="26" viewBox="0 0 28 26" fill="none" xmlns="http://www.w3.org/2000/svg">
<path d="M27.2602 0.686697C26.9727 0.448396 26.6261 0.292334 26.257 0.235058C25.888 0.177782 25.5104 0.221426 25.1642 0.361363L1.27486 10.0054C0.88882 10.164 0.560159 10.4363 0.332507 10.7861C0.104856 11.1359 -0.0110198 11.5467 0.000264041 11.9639C0.0115478 12.3811 0.149457 12.785 0.395684 13.122C0.641911 13.459 0.984809 13.7132 1.37886 13.8507L6.53353 15.64L9.32686 24.8747C9.33219 24.8934 9.34952 24.9054 9.35752 24.9227C9.38631 24.9964 9.42833 25.0642 9.48153 25.1227C9.56235 25.213 9.66668 25.279 9.78286 25.3134C9.79619 25.3187 9.80553 25.3307 9.81886 25.3334H9.82686L9.83086 25.3347C9.93401 25.3569 10.0412 25.3514 10.1415 25.3187C10.1522 25.316 10.1629 25.316 10.1749 25.312C10.2712 25.2782 10.3584 25.2225 10.4295 25.1494C10.4375 25.14 10.4509 25.1387 10.4589 25.1307L14.4762 20.696L20.3389 25.236C20.6949 25.5147 21.1335 25.6654 21.5855 25.6654C22.5642 25.6654 23.4082 24.98 23.6095 24.024L27.9589 2.6667C28.0326 2.30413 28.0066 1.92834 27.8836 1.5794C27.7605 1.23046 27.5451 0.921461 27.2602 0.685363V0.686697ZM10.7842 17.3934L9.84153 21.976L7.87486 15.472L17.6282 10.392L10.9655 17.056C10.8733 17.1482 10.8102 17.2655 10.7842 17.3934ZM22.3029 23.756C22.2778 23.8769 22.2221 23.9894 22.1411 24.0825C22.0601 24.1757 21.9565 24.2465 21.8402 24.288C21.7268 24.3317 21.6039 24.3451 21.4837 24.3268C21.3636 24.3086 21.2502 24.2594 21.1549 24.184L14.8042 19.2654C14.6714 19.1629 14.5049 19.1142 14.3379 19.129C14.1708 19.1439 14.0155 19.2211 13.9029 19.3454L11.1069 22.4267L12.0482 17.8574L21.6335 8.2707C21.7458 8.15807 21.8141 8.00904 21.8261 7.85048C21.8381 7.69193 21.7931 7.53429 21.6991 7.40603C21.6051 7.27777 21.4684 7.18732 21.3136 7.15101C21.1588 7.11471 20.9961 7.13493 20.8549 7.20803L7.03753 14.4054L1.81486 12.5894C1.67638 12.5436 1.55561 12.4559 1.46934 12.3383C1.38307 12.2207 1.3356 12.0792 1.33353 11.9334C1.32688 11.7863 1.36619 11.6407 1.44599 11.517C1.52578 11.3932 1.64212 11.2974 1.77886 11.2427L25.6642 1.5987C25.7866 1.54669 25.9211 1.52987 26.0525 1.55013C26.184 1.57039 26.3071 1.62692 26.4082 1.71336C26.5087 1.79468 26.5846 1.90233 26.6274 2.02429C26.6703 2.14625 26.6784 2.27773 26.6509 2.40403L22.3029 23.7574V23.756Z" fill="#AD6A75"/>
</svg>
