<svg width="19" height="22" viewBox="0 0 19 22" fill="none" xmlns="http://www.w3.org/2000/svg">
<path d="M9.50065 14.25C10.5118 14.25 11.4236 14.0016 12.2361 13.5047C13.0486 13.0078 13.6895 12.3535 14.159 11.5417C13.527 11.0181 12.8138 10.6162 12.0194 10.3359C11.225 10.0557 10.3854 9.91596 9.50065 9.91669C8.61593 9.91669 7.77635 10.0568 6.9819 10.337C6.18746 10.6172 5.47426 11.0188 4.84232 11.5417C5.31176 12.3542 5.95273 13.0089 6.76523 13.5058C7.57773 14.0027 8.48954 14.2507 9.50065 14.25ZM9.50065 8.83335C10.0965 8.83335 10.6067 8.62102 11.0314 8.19635C11.4561 7.77169 11.668 7.2618 11.6673 6.66669C11.6673 6.07085 11.455 5.5606 11.0303 5.13594C10.6057 4.71127 10.0958 4.4993 9.50065 4.50002C8.90482 4.50002 8.39457 4.71235 7.9699 5.13702C7.54523 5.56169 7.33326 6.07158 7.33398 6.66669C7.33398 7.26252 7.54632 7.77277 7.97098 8.19744C8.39565 8.6221 8.90554 8.83407 9.50065 8.83335ZM9.50065 18.9625C11.7034 16.9403 13.3375 15.103 14.4027 13.4505C15.468 11.7981 16.0007 10.3312 16.0007 9.05002C16.0007 7.08196 15.373 5.47069 14.1178 4.21619C12.8626 2.96169 11.3235 2.33408 9.50065 2.33335C7.67704 2.33335 6.13762 2.96096 4.8824 4.21619C3.62718 5.47141 2.99993 7.08269 3.00065 9.05002C3.00065 10.332 3.53329 11.7992 4.59857 13.4516C5.66385 15.104 7.29787 16.941 9.50065 18.9625ZM9.50065 21.8334C6.59371 19.3597 4.42271 17.0624 2.98765 14.9412C1.5526 12.82 0.834707 10.8563 0.833984 9.05002C0.833984 6.34169 1.70535 4.18405 3.44807 2.5771C5.19079 0.970159 7.20832 0.166687 9.50065 0.166687C11.7937 0.166687 13.8116 0.970159 15.5543 2.5771C17.297 4.18405 18.168 6.34169 18.1673 9.05002C18.1673 10.8556 17.4494 12.8193 16.0137 14.9412C14.5779 17.0631 12.4069 19.3605 9.50065 21.8334Z" fill="white"/>
</svg>
