<svg width="32" height="32" viewBox="0 0 32 32" fill="none" xmlns="http://www.w3.org/2000/svg">
<path d="M23.2236 18.5525L19.2236 16.5525C19.1449 16.5133 19.0572 16.4955 18.9694 16.501C18.8816 16.5065 18.7969 16.535 18.7236 16.5838L16.6436 17.9713C15.5003 17.4229 14.5782 16.5009 14.0299 15.3575L15.4174 13.2775C15.4661 13.2043 15.4947 13.1195 15.5001 13.0317C15.5056 12.9439 15.4879 12.8562 15.4486 12.7775L13.4486 8.7775C13.4071 8.69401 13.3431 8.62378 13.2638 8.57474C13.1845 8.52571 13.0931 8.49982 12.9999 8.5C11.8064 8.5 10.6618 8.97411 9.8179 9.81802C8.97399 10.6619 8.49988 11.8065 8.49988 13C8.50286 15.7839 9.61006 18.4528 11.5785 20.4213C13.547 22.3898 16.216 23.497 18.9999 23.5C20.1934 23.5 21.3379 23.0259 22.1819 22.182C23.0258 21.3381 23.4999 20.1935 23.4999 19C23.4999 18.9071 23.4741 18.816 23.4253 18.737C23.3765 18.658 23.3067 18.5941 23.2236 18.5525ZM18.9999 22.5C16.4811 22.4974 14.0663 21.4956 12.2853 19.7146C10.5043 17.9336 9.50253 15.5187 9.49988 13C9.49973 12.124 9.82808 11.2798 10.4201 10.6341C11.0121 9.98843 11.8247 9.58821 12.6974 9.5125L14.4224 12.9638L13.0474 15.0313C13.0016 15.0995 12.9732 15.1779 12.965 15.2597C12.9567 15.3414 12.9687 15.424 12.9999 15.5C13.6642 17.0793 14.9206 18.3357 16.4999 19C16.576 19.0316 16.6587 19.0439 16.7407 19.0359C16.8227 19.0278 16.9014 18.9996 16.9699 18.9538L19.0374 17.5788L22.4886 19.3038C22.4126 20.1765 22.0121 20.9889 21.3662 21.5807C20.7202 22.1725 19.8759 22.5005 18.9999 22.5ZM15.9999 3.5C13.8237 3.4996 11.6852 4.06731 9.79577 5.14699C7.90636 6.22667 6.33154 7.7809 5.22709 9.65594C4.12265 11.531 3.52684 13.6619 3.49861 15.8378C3.47038 18.0138 4.0107 20.1594 5.06613 22.0625L3.57863 26.5238C3.49049 26.788 3.4777 27.0717 3.54169 27.3428C3.60568 27.614 3.74393 27.862 3.94093 28.059C4.13793 28.256 4.38591 28.3942 4.65706 28.4582C4.92822 28.5222 5.21184 28.5094 5.47613 28.4213L9.93738 26.9338C11.6062 27.8584 13.4645 28.3888 15.37 28.4843C17.2755 28.5798 19.1775 28.2379 20.9305 27.4847C22.6834 26.7315 24.2406 25.5871 25.4829 24.139C26.7251 22.691 27.6194 20.9778 28.0973 19.1308C28.5751 17.2837 28.6238 15.3518 28.2397 13.483C27.8555 11.6142 27.0486 9.85814 25.8809 8.34936C24.7132 6.84058 23.2156 5.61912 21.5029 4.77856C19.7902 3.938 17.9078 3.50064 15.9999 3.5ZM15.9999 27.5C13.978 27.5006 11.9916 26.9681 10.2411 25.9563C10.1651 25.9125 10.0789 25.8892 9.99113 25.8888C9.93713 25.8887 9.8835 25.8976 9.83238 25.915L5.15988 27.4725C5.07178 27.5019 4.97724 27.5061 4.88686 27.4848C4.79647 27.4635 4.71382 27.4174 4.64815 27.3517C4.58248 27.2861 4.5364 27.2034 4.51507 27.113C4.49374 27.0226 4.498 26.9281 4.52738 26.84L6.08488 22.1675C6.10735 22.1003 6.11529 22.0292 6.10818 21.9587C6.10107 21.8882 6.07906 21.8201 6.04363 21.7588C4.77576 19.5672 4.26658 17.0185 4.59507 14.508C4.92356 11.9975 6.07137 9.66557 7.86043 7.87399C9.64948 6.08242 11.9798 4.93133 14.4898 4.59931C16.9998 4.26729 19.5493 4.77289 21.7426 6.03768C23.936 7.30247 25.6506 9.25574 26.6205 11.5945C27.5905 13.9332 27.7615 16.5267 27.1071 18.9725C26.4526 21.4184 25.0093 23.5799 23.001 25.1217C20.9927 26.6636 18.5318 27.4996 15.9999 27.5Z" fill="#AD6A75"/>
</svg>
