<svg width="41" height="47" viewBox="0 0 41 47" fill="none" xmlns="http://www.w3.org/2000/svg">
<path d="M0 3.53342C0 0.818802 2.93898 -0.87886 5.29229 0.476405L39.2476 20.0312C40.3318 20.6556 41 21.8111 41 23.0618V23.0618C41 24.3158 40.3283 25.4739 39.2395 26.0971L5.28893 45.5279C2.93347 46.876 0 45.1763 0 42.4634V42.4634C0 41.1928 0.682867 40.0202 1.7882 39.3927L19.0931 29.5685C24.1383 26.7043 24.1558 19.4437 19.1246 16.5552L1.77176 6.59281C0.675769 5.96359 0 4.79671 0 3.53342V3.53342Z" fill="#6B6B6B"/>
<path fill-rule="evenodd" clip-rule="evenodd" d="M37.1991 31.3469L10.1991 46.8469L9.80078 46.1531L36.8008 30.6531L37.1991 31.3469Z" fill="#6B6B6B"/>
<path fill-rule="evenodd" clip-rule="evenodd" d="M14.23 17.5366L4.79905 12.0607L5.20075 11.3688L14.6317 16.8448L14.23 17.5366Z" fill="#6B6B6B"/>
</svg>
