<svg width="41" height="47" viewBox="0 0 41 47" fill="none" xmlns="http://www.w3.org/2000/svg">
<path d="M41 3.53342C41 0.818802 38.061 -0.87886 35.7077 0.476405L1.75238 20.0312C0.668152 20.6556 0 21.8111 0 23.0618C0 24.3158 0.671715 25.4739 1.76053 26.0971L35.7111 45.5279C38.0665 46.876 41 45.1763 41 42.4634C41 41.1928 40.3171 40.0202 39.2118 39.3927L21.9069 29.5685C16.8617 26.7043 16.8442 19.4437 21.8754 16.5552L39.2282 6.59281C40.3242 5.96359 41 4.79671 41 3.53342Z" fill="#6B6B6B"/>
<path fill-rule="evenodd" clip-rule="evenodd" d="M3.80093 31.3469L30.8009 46.8469L31.1992 46.1531L4.19922 30.6531L3.80093 31.3469Z" fill="#6B6B6B"/>
<path fill-rule="evenodd" clip-rule="evenodd" d="M26.77 17.5366L36.2009 12.0607L35.7992 11.3688L26.3683 16.8448L26.77 17.5366Z" fill="#6B6B6B"/>
</svg>
