<svg width="20" height="16" viewBox="0 0 20 16" fill="none" xmlns="http://www.w3.org/2000/svg">
<path d="M3.33333 8.62598C3.79357 8.62598 4.16667 8.34615 4.16667 8.00098C4.16667 7.6558 3.79357 7.37598 3.33333 7.37598C2.8731 7.37598 2.5 7.6558 2.5 8.00098C2.5 8.34615 2.8731 8.62598 3.33333 8.62598Z" fill="white"/>
<path d="M16.7167 7.37598H6.61671C6.18408 7.37598 5.83337 7.63901 5.83337 7.96348V8.03848C5.83337 8.36294 6.18408 8.62598 6.61671 8.62598H16.7167C17.1493 8.62598 17.5 8.36294 17.5 8.03848V7.96348C17.5 7.63901 17.1493 7.37598 16.7167 7.37598Z" fill="white"/>
<path d="M16.7167 10.501H3.28333C2.85071 10.501 2.5 10.764 2.5 11.0885V11.1635C2.5 11.4879 2.85071 11.751 3.28333 11.751H16.7167C17.1493 11.751 17.5 11.4879 17.5 11.1635V11.0885C17.5 10.764 17.1493 10.501 16.7167 10.501Z" fill="white"/>
<path d="M16.7167 4.25098H3.28333C2.85071 4.25098 2.5 4.51401 2.5 4.83848V4.91348C2.5 5.23794 2.85071 5.50098 3.28333 5.50098H16.7167C17.1493 5.50098 17.5 5.23794 17.5 4.91348V4.83848C17.5 4.51401 17.1493 4.25098 16.7167 4.25098Z" fill="white"/>
</svg>
