<svg width="11" height="12" viewBox="0 0 11 12" fill="none" xmlns="http://www.w3.org/2000/svg">
<path d="M10.7213 10.3333L1.16753 0.779449C0.85985 0.471767 0.423357 0.409411 0.192597 0.640172L0.139257 0.693513C-0.0915034 0.924274 -0.0291473 1.36077 0.278533 1.66845L9.83229 11.2223C10.14 11.5299 10.5765 11.5923 10.8072 11.3615L10.8606 11.3082C11.0913 11.0774 11.029 10.6409 10.7213 10.3333Z" fill="white"/>
<path d="M0.278471 10.3333L9.83223 0.779449C10.1399 0.471767 10.5764 0.409411 10.8072 0.640172L10.8605 0.693513C11.0913 0.924274 11.0289 1.36077 10.7212 1.66845L1.16747 11.2223C0.859788 11.5299 0.423295 11.5923 0.192535 11.3615L0.139195 11.3082C-0.0915654 11.0774 -0.0292089 10.6409 0.278471 10.3333Z" fill="white"/>
</svg>
