<svg width="35" height="21" viewBox="0 0 35 21" fill="none" xmlns="http://www.w3.org/2000/svg">
<path fill-rule="evenodd" clip-rule="evenodd" d="M0 0.573771C0 0.256886 0.256465 0 0.572831 0H6.93126C7.24763 0 7.50409 0.256886 7.50409 0.573771C7.50409 0.890655 7.24763 1.14754 6.93126 1.14754H1.14566V5.96721C1.14566 6.2841 0.889198 6.54098 0.572831 6.54098C0.256465 6.54098 0 6.2841 0 5.96721V0.573771ZM9.96727 0.573771C9.96727 0.256886 10.2237 0 10.5401 0H22.054C22.3704 0 22.6268 0.256886 22.6268 0.573771V0.745902H24.1735C24.1788 0.745902 24.1841 0.745975 24.1894 0.746123C26.3912 0.807385 28.2141 2.47239 28.445 4.59335C30.4671 5.107 31.8841 7.23137 31.9064 9.63896C32.6606 9.86612 33.2949 10.3452 33.7779 10.9348C33.9835 11.1757 34.1656 11.4381 34.3223 11.7182C34.3483 11.7549 34.37 11.7948 34.3868 11.8372C34.7838 12.5938 35 13.4717 35 14.4016V16.9262C35 17.2431 34.7435 17.5 34.4272 17.5H32.9951C32.6787 17.5 32.4223 17.2431 32.4223 16.9262C32.4223 16.6093 32.6787 16.3525 32.9951 16.3525H33.8543V14.4016C33.8543 13.7543 33.7251 13.1513 33.4936 12.623H31.8494C31.5331 12.623 31.2766 12.3661 31.2766 12.0492C31.2766 11.7323 31.5331 11.4754 31.8494 11.4754H32.7272C32.3199 11.046 31.8288 10.7589 31.2908 10.6721H24.9755C24.6591 10.6721 24.4026 10.4152 24.4026 10.0984V7.45902C24.4026 7.14213 24.6591 6.88525 24.9755 6.88525H28.4124C28.7288 6.88525 28.9853 7.14213 28.9853 7.45902C28.9853 7.7759 28.7288 8.03279 28.4124 8.03279H25.5483V9.52459H30.7583C30.685 7.24425 29.1616 5.62295 27.4959 5.62295H22.6268V16.4672H23.7291C23.9039 14.315 25.7031 12.623 27.8969 12.623C30.2064 12.623 32.0786 14.4982 32.0786 16.8115C32.0786 19.1247 30.2064 21 27.8969 21C25.8617 21 24.1661 19.5437 23.792 17.6148H13.0983C12.7242 19.5437 11.0286 21 8.99345 21C6.95827 21 5.26267 19.5437 4.88861 17.6148H0.572831C0.256465 17.6148 0 17.3579 0 17.041V8.77869C0 8.4618 0.256465 8.20492 0.572831 8.20492C0.889198 8.20492 1.14566 8.4618 1.14566 8.77869V16.4672H4.82571C5.00051 14.315 6.79971 12.623 8.99345 12.623C11.1872 12.623 12.9864 14.315 13.1612 16.4672H21.4812V1.14754H10.5401C10.2237 1.14754 9.96727 0.890655 9.96727 0.573771ZM22.6268 4.47541H27.2691C26.9947 3.05665 25.7237 1.94033 24.1652 1.89344H22.6268V4.47541ZM8.99345 13.7705C7.31671 13.7705 5.95745 15.132 5.95745 16.8115C5.95745 18.491 7.31671 19.8525 8.99345 19.8525C10.6702 19.8525 12.0295 18.491 12.0295 16.8115C12.0295 15.132 10.6702 13.7705 8.99345 13.7705ZM27.8969 13.7705C26.2201 13.7705 24.8609 15.132 24.8609 16.8115C24.8609 18.491 26.2201 19.8525 27.8969 19.8525C29.5736 19.8525 30.9329 18.491 30.9329 16.8115C30.9329 15.132 29.5736 13.7705 27.8969 13.7705ZM8.99345 16.2377C8.67709 16.2377 8.42062 16.4946 8.42062 16.8115C8.42062 17.1284 8.67709 17.3852 8.99345 17.3852C9.30982 17.3852 9.56629 17.1284 9.56629 16.8115C9.56629 16.4946 9.30982 16.2377 8.99345 16.2377ZM7.27496 16.8115C7.27496 15.8608 8.04436 15.0902 8.99345 15.0902C9.94255 15.0902 10.7119 15.8608 10.7119 16.8115C10.7119 17.7621 9.94255 18.5328 8.99345 18.5328C8.04436 18.5328 7.27496 17.7621 7.27496 16.8115ZM27.8969 16.2377C27.5805 16.2377 27.3241 16.4946 27.3241 16.8115C27.3241 17.1284 27.5805 17.3852 27.8969 17.3852C28.2133 17.3852 28.4697 17.1284 28.4697 16.8115C28.4697 16.4946 28.2133 16.2377 27.8969 16.2377ZM26.1784 16.8115C26.1784 15.8608 26.9478 15.0902 27.8969 15.0902C28.846 15.0902 29.6154 15.8608 29.6154 16.8115C29.6154 17.7621 28.846 18.5328 27.8969 18.5328C26.9478 18.5328 26.1784 17.7621 26.1784 16.8115Z" fill="#6B6B6B"/>
</svg>
