<svg width="32" height="32" viewBox="0 0 32 32" fill="none" xmlns="http://www.w3.org/2000/svg">
<path d="M0.09375 7.75C0.09375 6.5625 0.90625 6.09375 1.90625 6.03125L6.5625 6.0625C6.84375 6.0625 7.09375 6.25 7.1875 6.53125C8.25 9.96875 9.5625 12.0938 11.125 14.5C11.2188 14.6875 11.375 14.7812 11.5312 14.7812C11.6562 14.7812 11.7812 14.7188 11.875 14.5625L11.9688 14.2188L12 8.8125C12 8.03125 11.625 7.90625 10.75 7.78125C10.4062 7.71875 10.1875 7.40625 10.1875 7.09375C10.1875 7.03125 10.1875 6.96875 10.2188 6.90625C10.6562 5.5625 12.0312 4.875 13.9688 4.875L15.7188 4.84375C17.1562 4.84375 18.4688 5.46875 18.4688 7.3125V14.4062C18.5938 14.5 18.7188 14.5625 18.875 14.5625C19.125 14.5625 19.4375 14.4062 19.6875 14C21.3125 11.7188 23.1562 9 23.4062 7.5625C23.4062 7.5 23.4375 7.46875 23.4688 7.40625C23.8125 6.71875 24.6875 6.25 25.0625 6.125C25.125 6.09375 25.2188 6.0625 25.3438 6.0625H30.1875L30.5 6.09375C30.9688 6.09375 31.3125 6.40625 31.4688 6.6875C31.75 7.125 31.6875 7.59375 31.7188 7.78125V8C31.25 10.8438 28 14.0312 26.625 16.0938C26.4375 16.3438 26.3438 16.5625 26.3438 16.7812C26.3438 16.9688 26.4375 17.1562 26.5938 17.3438L31.1562 23.0938C31.4062 23.4375 31.5312 23.8438 31.5312 24.1875C31.5312 25.2188 30.5625 25.8125 29.625 25.9062L29.0938 25.9375H24.3438C24.25 25.9375 24.1875 25.9688 24.0938 25.9688C23.5625 25.9688 23.125 25.6875 22.8125 25.375C21.8125 24.1562 20.8438 22.9062 19.875 21.6875C19.6875 21.4375 19.625 21.4062 19.4375 21.2812C19.2188 22.1875 19.0312 23.125 18.8125 24.0625L18.7188 24.5938C18.5625 25.1562 18.1562 25.75 17.4062 25.9062L16.9688 25.9375H13.9062C8.5 25.9375 3.65625 18.25 0.25 8.65625C0.15625 8.40625 0.09375 8.0625 0.09375 7.75ZM18.875 15.8438C18.0625 15.8438 17.1562 15.375 17.1562 14.5V7.3125C17.1562 6.46875 16.7812 6.15625 15.75 6.15625L13.9688 6.21875C12.9688 6.21875 12.4062 6.375 11.9375 6.6875C12.6562 7.03125 13.3125 7.5 13.3125 8.8125V14.3125C13.2188 15.4062 12.3125 16.125 11.4375 16.125C10.8438 16.125 10.3125 15.7812 10 15.2188C8.59375 13.0938 7.40625 11.0938 6.375 8.21875L6.09375 7.40625L1.9375 7.375C1.375 7.375 1.4375 7.40625 1.4375 7.6875C1.4375 7.875 1.46875 8.125 1.5 8.28125L2.15625 10.0312C5.5625 18.8438 9.84375 24.625 13.9062 24.625H17.0312C17.4688 24.625 17.4375 24.0938 17.5312 23.7812L18.125 21.0312C18.25 20.75 18.3438 20.5 18.5625 20.2812C18.8125 20.0312 19.0938 19.9375 19.375 19.9375C19.9688 19.9375 20.5312 20.4062 20.9062 20.8438L23.5625 24.2188C23.7812 24.5625 23.9688 24.625 24.0938 24.625H29.25C29.75 24.625 30.1875 24.4688 30.1875 24.1562C30.1875 24.0625 30.1562 23.9375 30.0938 23.8438L25.5625 18.1875C25.1875 17.7188 25.0312 17.25 25.0312 16.7812C25.0312 16.2812 25.2188 15.7812 25.5312 15.3438C26.8438 13.375 29.6562 10.5625 30.3125 8.25L30.4062 7.84375C30.375 7.6875 30.375 7.5625 30.3438 7.40625H25.4375C25.125 7.53125 24.875 7.71875 24.6875 7.96875L24.5 8.5625C23.7812 10.5625 21.8125 13.3125 20.4062 15.2188C19.9375 15.6562 19.4062 15.8438 18.875 15.8438Z" fill="#6B6B6B"/>
</svg>
