<svg width="73" height="95" viewBox="0 0 73 95" fill="none" xmlns="http://www.w3.org/2000/svg">
<g id="Group 30">
<g id="Group 28">
<g id="Vector">
<path d="M23.951 32.2769C48.1916 13.137 28.0114 -8.83572 17.3863 7.79992C-0.140763 -1.29938 -6.62073 27.8103 23.951 32.2769Z" fill="#D8C3B2"/>
<path d="M23.951 32.2769C48.1916 13.137 28.0114 -8.83572 17.3863 7.79992C-0.140763 -1.29938 -6.62073 27.8103 23.951 32.2769Z" stroke="#AF9580"/>
</g>
<path id="Vector 17" d="M5.5 17.5336C6.46706 19.7099 9.42095 24.3566 13.5 25.5336" stroke="#AF9580"/>
<path id="Vector 18" d="M9.5 20.5336C9.72211 20.9781 10.4331 22.0003 11.5 22.5336" stroke="#AF9580"/>
<path id="Vector 19" d="M23.6048 32.3766C24.5582 34.9741 22.2798 39.2992 20.394 38.2436C18.8309 37.3687 21.4358 32.8649 23.6048 32.3766Z" stroke="#AF9580"/>
<path id="Vector 20" d="M25.5796 31.4352C26.5007 34.0219 30.3806 35.832 30.9154 33.8131C31.3587 32.1397 27.1776 30.4048 25.5796 31.4352Z" stroke="#AF9580"/>
<path id="Vector 27" d="M37.5 51.0998C36.1991 52.2813 34.2027 50.8237 33.9317 49.4261C33.6296 47.8679 34.3191 46.6526 34.7825 45.2324C35.1392 44.1391 35.4597 42.9265 34.807 41.8726C34.0456 40.6433 32.3795 39.9248 31.0184 39.6059C29.6057 39.275 28.3107 39.0592 27.1012 38.2101C25.1167 36.817 25.3095 33.5757 24.5 31.5336" stroke="#AF9580" stroke-linecap="round"/>
</g>
<g id="Group 29">
<path id="Vector 19_2" d="M51.3952 31.3765C50.4418 33.974 52.7202 38.2992 54.606 37.2436C56.1691 36.3686 53.5642 31.8648 51.3952 31.3765Z" stroke="#BC8C89"/>
<path id="Vector 20_2" d="M50.4204 30.4351C49.4993 33.0218 45.6194 34.832 45.0846 32.8131C44.6413 31.1397 48.8224 29.4048 50.4204 30.4351Z" stroke="#BC8C89"/>
<path id="Vector 28" d="M33.0454 70.3481C34.7588 71.0917 38.7458 70.299 39.1971 68.1155C39.5546 66.3854 37.7881 65.0746 36.9389 63.8039C35.9653 62.347 35.7279 61.0054 36.1622 59.2739C36.7773 56.8215 39.1798 55.2028 41.2433 53.9481C42.9477 52.9118 43.8581 51.9438 44.3067 50.0395C44.7963 47.961 43.8286 45.6321 43.902 43.511C43.9647 41.6953 44.7306 40.1758 45.6877 38.6363C46.9967 36.5305 48.6014 33.5685 50.4182 31.8647" stroke="#BC8C89" stroke-linecap="round"/>
<g id="Vector_2">
<path d="M51.2751 31.7672C29.1985 14.5152 47.4583 -5.1397 57.1607 9.82226C73.0511 1.71151 79.0279 27.8546 51.2751 31.7672Z" fill="#D6B3B1"/>
<path d="M51.2751 31.7672C29.1985 14.5152 47.4583 -5.1397 57.1607 9.82226C73.0511 1.71151 79.0279 27.8546 51.2751 31.7672Z" stroke="#BC8C89"/>
</g>
<path id="Vector 17_2" d="M67.5 18.5336C66.6538 20.4378 64.0692 24.5037 60.5 25.5336" stroke="#BC8C89"/>
<path id="Vector 18_2" d="M64.5 20.5336C64.2779 20.978 63.5669 22.0003 62.5 22.5336" stroke="#BC8C89"/>
</g>
<rect id="Rectangle 24" x="16" y="59.0336" width="43" height="35" fill="#AD6A75" stroke="#89525B"/>
<rect id="Rectangle 26" x="13" y="52.0336" width="48" height="8" fill="#AD6A75" stroke="#89525B"/>
<rect id="Rectangle 25" x="34" y="59.0336" width="6" height="35" fill="#D6B3B1" stroke="#89525B"/>
<g id="Group 27">
<path id="Vector 9" d="M41.7936 70.5411L41.8202 72.327L42.7247 70.7868C43.167 70.0337 43.7455 68.8291 44.2049 67.7768C44.4354 67.2488 44.6396 66.7506 44.7843 66.3583C44.8101 66.2883 44.8343 66.2208 44.8567 66.1564L48.2856 67.784L49.1204 68.1803L48.9954 67.2647C48.8036 65.86 48.1937 63.7309 46.9755 61.8664C45.7532 59.9954 43.8863 58.3478 41.1854 58.0369L40.9155 58.0058L40.7426 58.2154C40.7432 58.2146 40.7432 58.2147 40.7422 58.2156C40.7381 58.2197 40.7176 58.2396 40.6698 58.2736C40.6154 58.3123 40.5402 58.3589 40.4439 58.4107C40.2515 58.5141 39.9932 58.6281 39.6864 58.7341C39.0711 58.9467 38.2923 59.1161 37.5 59.1161L37.3531 60.094C38.4225 60.4229 41.6792 62.87 41.7936 70.5411Z" fill="#D6B3B1" stroke="#AC6F7A"/>
<path id="Vector 7" d="M39.1041 50.8043L38.9247 51.0369L39.0405 51.3068L39.6515 52.7308L39.8502 53.1937L40.3116 52.9916C41.0938 52.649 42.0258 52.0134 42.9252 51.2772C43.8304 50.5363 44.7307 49.6703 45.4492 48.8439C46.1509 48.0367 46.7345 47.2056 46.9279 46.5403C47.0232 46.2123 47.0636 45.7826 46.7902 45.4388C46.5185 45.097 46.078 45.0188 45.6626 45.0359C44.9507 45.0651 44.2624 45.3747 43.6338 45.7987C43.0015 46.2254 42.3924 46.7932 41.8318 47.3946C40.9649 48.3247 40.1734 49.3816 39.5719 50.185C39.3994 50.4152 39.2426 50.6247 39.1041 50.8043Z" fill="#CC9592" stroke="#AC6F7A"/>
<path id="Vector 8" d="M49.5781 57.0546L49.6097 57.0087L49.6305 56.9569C50.2521 55.4102 50.0045 53.4448 49.5117 51.6977C49.0128 49.9292 48.2307 48.2749 47.6577 47.2835L47.0968 46.3127L46.7494 47.3787C46.3322 48.6594 45.0715 49.8569 43.5522 50.8505C42.0528 51.831 40.3971 52.5513 39.3391 52.9109L38.8232 53.0863L39.0422 53.5853C39.0396 53.5795 39.0404 53.582 39.0451 53.597C39.0509 53.6155 39.0627 53.6532 39.0815 53.7177C39.1102 53.8161 39.1477 53.9501 39.1922 54.1128C39.2812 54.4377 39.3961 54.8694 39.5204 55.3419C39.769 56.2865 40.0537 57.3894 40.24 58.1168L40.3122 58.3986L40.5929 58.4751C45.8306 59.9029 48.7326 58.2792 49.5781 57.0546Z" fill="#D6B3B1" stroke="#AC6F7A"/>
<g id="Group 26">
<path id="Vector 14" d="M33.2064 70.5411L33.1798 72.327L32.2753 70.7868C31.833 70.0337 31.2545 68.8291 30.7951 67.7768C30.5646 67.2488 30.3604 66.7506 30.2157 66.3583C30.1899 66.2883 30.1657 66.2208 30.1433 66.1564L26.7144 67.784L25.8796 68.1803L26.0046 67.2647C26.1964 65.86 26.8063 63.7309 28.0245 61.8664C29.2468 59.9954 31.1137 58.3478 33.8146 58.0369L34.0845 58.0058L34.2574 58.2154C34.2568 58.2146 34.2568 58.2147 34.2578 58.2156C34.2619 58.2197 34.2824 58.2396 34.3302 58.2736C34.3846 58.3123 34.4598 58.3589 34.5561 58.4107C34.7485 58.5141 35.0068 58.6281 35.3136 58.7341C35.9289 58.9467 36.7077 59.1161 37.5 59.1161L37.6469 60.094C36.5775 60.4229 33.3208 62.87 33.2064 70.5411Z" fill="#D6B3B1" stroke="#AC6F7A"/>
<path id="Vector 15" d="M35.8959 50.8043L36.0753 51.0369L35.9595 51.3068L35.3485 52.7308L35.1498 53.1937L34.6884 52.9916C33.9062 52.649 32.9742 52.0134 32.0748 51.2772C31.1696 50.5363 30.2693 49.6703 29.5508 48.8439C28.8491 48.0367 28.2655 47.2056 28.0721 46.5403C27.9768 46.2123 27.9364 45.7826 28.2098 45.4388C28.4815 45.097 28.922 45.0188 29.3374 45.0359C30.0493 45.0651 30.7376 45.3747 31.3662 45.7987C31.9985 46.2254 32.6076 46.7932 33.1682 47.3946C34.0351 48.3247 34.8266 49.3816 35.4281 50.185C35.6006 50.4152 35.7574 50.6247 35.8959 50.8043Z" fill="#CC9592" stroke="#AC6F7A"/>
<path id="Vector 16" d="M25.4219 57.0546L25.3903 57.0087L25.3695 56.9569C24.7479 55.4102 24.9955 53.4448 25.4883 51.6977C25.9872 49.9292 26.7693 48.2749 27.3423 47.2835L27.9032 46.3127L28.2506 47.3787C28.6678 48.6594 29.9285 49.8569 31.4478 50.8505C32.9472 51.831 34.6029 52.5513 35.6609 52.9109L36.1768 53.0863L35.9578 53.5853C35.9604 53.5795 35.9596 53.582 35.9549 53.597C35.9491 53.6155 35.9373 53.6532 35.9185 53.7177C35.8898 53.8161 35.8523 53.9501 35.8078 54.1128C35.7188 54.4377 35.6039 54.8694 35.4796 55.3419C35.231 56.2865 34.9463 57.3894 34.76 58.1168L34.6878 58.3986L34.4071 58.4751C29.1694 59.9029 26.2674 58.2792 25.4219 57.0546Z" fill="#D6B3B1" stroke="#AC6F7A"/>
<path id="Vector_3" d="M37.361 59.0308L37.4137 59.0364L37.4664 59.0308C37.9447 58.9802 38.7876 58.8907 39.4943 58.7173C39.8417 58.6321 40.2019 58.5163 40.4751 58.3491C40.7311 58.1923 41.0918 57.8657 40.9805 57.3589C40.9678 57.3014 40.9517 57.2244 40.9321 57.1308C40.8043 56.5201 40.5286 55.2021 40.1045 53.9768C39.8608 53.2726 39.5564 52.5631 39.182 52.0243C38.8237 51.5086 38.3052 51.0152 37.609 51.0341H37.4216C36.7263 51.0152 36.206 51.5076 35.845 52.0227C35.4678 52.5611 35.1595 53.2703 34.9119 53.9745C34.473 55.2232 34.1885 56.5663 34.062 57.1632C34.0453 57.2421 34.0313 57.308 34.0202 57.3589C33.9143 57.8408 34.2268 58.1689 34.4828 58.339C34.7424 58.5116 35.0846 58.6295 35.412 58.7154C36.0788 58.8903 36.8807 58.98 37.361 59.0308Z" fill="#D6B3B1" stroke="#AC6F7A"/>
</g>
</g>
</g>
</svg>
