<svg width="12" height="12" viewBox="0 0 12 12" fill="none" xmlns="http://www.w3.org/2000/svg">
<path d="M0.902151 6C0.209056 6 -0.22439 6.39349 0.121635 6.70857L5.11434 11.2547C5.27377 11.3999 5.56879 11.4894 5.88812 11.4894C6.2083 11.4894 6.50398 11.3994 6.66309 11.2536L11.6241 6.70812C11.9683 6.39275 11.5344 6 10.8417 6C10.5173 6 10.2179 6.09143 10.0577 6.23942L7.5494 8.55632C6.81812 9.2318 4.96434 9.23414 4.22685 8.56052L1.68327 6.23722C1.52262 6.09048 1.22469 6 0.902151 6Z" fill="#989898"/>
<path fill-rule="evenodd" clip-rule="evenodd" d="M8.00356 10.9805L11.961 7.36554L11.7839 7.31221L7.82642 10.9272L8.00356 10.9805Z" fill="#989898"/>
<path fill-rule="evenodd" clip-rule="evenodd" d="M4.47736 7.90522L3.07924 6.64254L2.9026 6.69632L4.30072 7.95901L4.47736 7.90522Z" fill="#989898"/>
</svg>
