<svg width="32" height="32" viewBox="0 0 32 32" fill="none" xmlns="http://www.w3.org/2000/svg">
<path d="M29.2602 3.68657C28.9727 3.44827 28.6261 3.29221 28.257 3.23494C27.888 3.17766 27.5104 3.2213 27.1642 3.36124L3.27486 13.0052C2.88882 13.1639 2.56016 13.4362 2.33251 13.786C2.10486 14.1358 1.98898 14.5466 2.00026 14.9638C2.01155 15.381 2.14946 15.7849 2.39568 16.1219C2.64191 16.4589 2.98481 16.713 3.37886 16.8506L8.53353 18.6399L11.3269 27.8746C11.3322 27.8932 11.3495 27.9052 11.3575 27.9226C11.3863 27.9962 11.4283 28.064 11.4815 28.1226C11.5623 28.2128 11.6667 28.2789 11.7829 28.3132C11.7962 28.3186 11.8055 28.3306 11.8189 28.3332H11.8269L11.8309 28.3346C11.934 28.3568 12.0412 28.3513 12.1415 28.3186C12.1522 28.3159 12.1629 28.3159 12.1749 28.3119C12.2712 28.2781 12.3584 28.2224 12.4295 28.1492C12.4375 28.1399 12.4509 28.1386 12.4589 28.1306L16.4762 23.6959L22.3389 28.2359C22.6949 28.5146 23.1335 28.6652 23.5855 28.6652C24.5642 28.6652 25.4082 27.9799 25.6095 27.0239L29.9589 5.66657C30.0326 5.30401 30.0066 4.92821 29.8836 4.57927C29.7605 4.23034 29.5451 3.92134 29.2602 3.68524V3.68657ZM12.7842 20.3932L11.8415 24.9759L9.87486 18.4719L19.6282 13.3919L12.9655 20.0559C12.8733 20.1481 12.8102 20.2654 12.7842 20.3932ZM24.3029 26.7559C24.2778 26.8768 24.2221 26.9892 24.1411 27.0824C24.0601 27.1756 23.9565 27.2463 23.8402 27.2879C23.7268 27.3316 23.6039 27.3449 23.4837 27.3267C23.3636 27.3085 23.2502 27.2592 23.1549 27.1839L16.8042 22.2652C16.6714 22.1628 16.5049 22.1141 16.3379 22.1289C16.1708 22.1437 16.0155 22.221 15.9029 22.3452L13.1069 25.4266L14.0482 20.8572L23.6335 11.2706C23.7458 11.158 23.8141 11.0089 23.8261 10.8504C23.8381 10.6918 23.7931 10.5342 23.6991 10.4059C23.6051 10.2776 23.4684 10.1872 23.3136 10.1509C23.1588 10.1146 22.9961 10.1348 22.8549 10.2079L9.03753 17.4052L3.81486 15.5892C3.67638 15.5435 3.55561 15.4558 3.46934 15.3382C3.38307 15.2206 3.3356 15.0791 3.33353 14.9332C3.32688 14.7861 3.36619 14.6406 3.44599 14.5168C3.52578 14.3931 3.64212 14.2972 3.77886 14.2426L27.6642 4.59857C27.7866 4.54657 27.9211 4.52975 28.0525 4.55001C28.184 4.57027 28.3071 4.6268 28.4082 4.71324C28.5087 4.79456 28.5846 4.90221 28.6274 5.02417C28.6703 5.14613 28.6784 5.27761 28.6509 5.40391L24.3029 26.7572V26.7559Z" fill="white"/>
</svg>
